<svg  viewBox="0 0 433 232" xmlns="http://www.w3.org/2000/svg"><g fill="none" fill-rule="evenodd"><path d="m114.2765 17.0398h178.338c10.864 0 19.67 8.807 19.67 19.67v.001c0 10.863-8.806 19.67-19.67 19.67h-4.913c-12.823 0-23.218 10.395-23.218 23.219 0 12.823 10.395 23.218 23.218 23.218h122.285c12.459 0 22.559 10.1 22.559 22.559s-10.1 22.559-22.559 22.559h-2.725c-10.372 0-18.78 8.408-18.78 18.78v.004c0 10.372-8.408 18.779-18.78 18.779h-259.573c-17.568 0-31.81-14.241-31.81-31.81v-.002c0-17.568-14.242-31.809-31.81-31.809h-9.818c-20.264 0-36.69-16.427-36.69-36.691v-.004c0-20.264 16.426-36.691 36.69-36.691h46.133c8.685 0 15.726-7.04 15.726-15.725 0-8.686 7.041-15.727 15.727-15.727" fill="#4f545c" fill-opacity=".3"/><path d="m135.6002 62.2371c-.348-.883-.545-1.84-.545-2.844v-1.512c0-.767-.546-1.422-1.243-1.493-.397-.042-.775.085-1.07.352-.293.265-.46.639-.46 1.027v5.211c0 .335-.037.66-.104.976-.452 2.139-2.352 3.752-4.624 3.752-.705 0-1.369-.166-1.97-.444-1.623-.75-2.757-2.382-2.757-4.284v-2.581c0-.872-.624-1.618-1.421-1.698-.455-.048-.887.097-1.225.402-.334.302-.525.731-.525 1.175v6.957c0 1.21-.277 2.354-.758 3.383-.366.785-.854 1.501-1.443 2.124h15.985v-3.488c0-2.472.906-4.732 2.397-6.48-.085-.175-.165-.352-.237-.535m-34.1538 1.6767c-.389-.441-.864-.685-1.459-.718-1.011-.054-2.284.509-3.141 1.412-1.632 1.721-3.065 4.858-3.26 7.141-.03.341-.013.67.027.991h7.833z" fill="#36393f"/><path d="m87.4464 68.242c.552 0 1 .447 1 1v3.498h3.149c-.033-.381-.036-.77-.002-1.163.237-2.763 1.836-6.273 3.802-8.346 1.259-1.326 3.106-2.123 4.705-2.032.482.027.926.151 1.346.325v-1.966c0-.275-.224-.5-.5-.5h-12.551c.033.162.051.33.051.5v2.89c0 .553-.448 1-1 1zm-33.6094 4.3974c-.002-.723.338-1.429 1.014-2.099.091-.089.192-.185.298-.285.402-.377 1.009-.946.869-1.22-.056-.106-.525-.241-1.124-.146-2.212.367-4.696 2.193-6.151 3.646-.088.088-.19.149-.297.198v.007h5.403c-.002-.035-.012-.067-.012-.101m4.771-10.0224c3.877-.754 7.794-2.144 11.582-3.486.067-.025.138-.048.206-.073h-6.45-4.454c-.107.101-.232.184-.381.23-.35.107-3.402 1.098-3.055 2.798.175.861 1.674.703 2.552.531" fill="#4f545c"/><path d="m72.5426 66.198c.114-.16.243-.314.381-.464.704-.755 4.274-3.432 6.571-2.66.543.184 1.477.728 1.63 2.303.207 2.131-2.09 4.55-4.364 5.471-.655.265-1.281.396-1.859.396-1 0-1.857-.391-2.467-1.155-.836-1.049-.791-2.649.108-3.891m-17.976.719c1.16-.196 2.62.022 3.228 1.202.833 1.616-.54 2.903-1.277 3.596l-.258.246c-.382.379-.423.595-.423.671 0 .033.019.071.034.108h2.166c.41-.267.873-.624 1.42-1.082.279-.235.543-.455.784-.638 1.172-.884 2.995-1.525 4.427-.97.934.362 1.564 1.185 1.774 2.316.023.127.034.25.045.374h19.96v-3.498c0-.553.448-1 1-1v-4.794c-.552 0-1-.447-1-1v-2.89c0-.275-.224-.5-.5-.5h-9.438c-.041.02-.073.052-.118.066-1.83.579-3.712 1.246-5.532 1.891-3.857 1.369-7.845 2.783-11.869 3.565-.602.117-1.132.169-1.597.169-2.525 0-3.145-1.519-3.297-2.263-.285-1.396.3-2.544 1.284-3.428h-6.433c-.276 0-.5.225-.5.5v10.55c1.706-1.441 3.955-2.833 6.12-3.191" fill="#36393f"/><path d="m63.943 71.9138c-.58-.225-1.677.084-2.499.704-.046.035-.102.084-.149.122h3.181c-.001-.003 0-.006-.001-.009-.122-.658-.42-.774-.532-.817m12.0659-2.9189c1.76-.714 3.214-2.51 3.125-3.425-.051-.523-.217-.58-.28-.601-.09-.031-.194-.044-.309-.044-1.143 0-3.426 1.386-4.157 2.173 0 0-.001 0-.001.001-.08.084-.154.173-.221.267-.354.489-.428 1.149-.168 1.476.483.603 1.36.415 2.011.153" fill="#4f545c"/><path d="m130.2945 92.8308c0 .553-.448 1-1 1h-96.987l14.837 51.929c.368 1.288 1.545 2.175 2.884 2.175h6.634c.449-12.84 11.029-23.15 23.978-23.15 12.948 0 23.529 10.31 23.979 23.15h15.325c-1.397-1.6-2.294-3.63-2.461-5.829-.222-2.921.838-5.785 2.91-7.856 2.577-2.578 6.375-3.592 10-2.512 3.324.989 5.834 3.737 6.805 7.066l2.664 9.131h5.129v-16.95c0-6.444 3.227-12.143 8.149-15.579 1.273-.888 1.12-2.764-.266-3.463-6.21-3.124-10.483-9.545-10.483-16.958v-1.389c-1.024-.108-2.001-.372-2.91-.765z" fill="#36393f"/><path d="m78.0079 138.6189c.537-.144 1.081.183 1.218.718.006.021 0 .043.004.064.461-.068.93-.116 1.411-.116 1.3 0 2.538.263 3.666.735.008-.016.007-.035.016-.051.266-.485.874-.664 1.358-.397 3.368 1.846 5.46 5.375 5.46 9.213 0 5.79-4.711 10.5-10.5 10.5-5.79 0-10.5-4.71-10.5-10.5 0-4.79 3.235-8.971 7.867-10.166m-10.033 4.192c-.885 1.875-1.334 3.885-1.334 5.974 0 7.72 6.28 14 14 14s14-6.28 14-14-6.28-14-14-14c-1.82 0-3.59.344-5.262 1.022-.495.201-1.05-.029-1.274-.507-1.083.526-2.101 1.164-3.019 1.923.355.402.335 1.013-.058 1.384-.523.494-1.013 1.034-1.455 1.604-.197.254-.492.387-.791.387-.203 0-.406-.067-.583-.195-.239.356-.459.726-.669 1.102.473.248.675.82.445 1.306" fill="#4f545c"/><path d="m78.5079 140.5545c-3.749.968-6.367 4.353-6.367 8.23 0 4.687 3.813 8.5 8.5 8.5s8.5-3.813 8.5-8.5c0-3.106-1.694-5.964-4.421-7.459-.468-.256-.64-.83-.413-1.305-1.128-.473-2.366-.736-3.666-.736-.481 0-.95.048-1.411.117.097.513-.209 1.021-.722 1.153" fill="#36393f"/><path d="m322.7105 161.0046v9.28c0 .171-.018.339-.051.5h12.551c.276 0 .5-.224.5-.5v-26.86c-.754-1.154-2.054-1.886-3.419-1.819-2.169.039-3.934 1.836-3.934 4.004v3.025c0 3.923-2.888 7.175-6.647 7.766v3.604c.552 0 1 .447 1 1" fill="#4f545c"/><path d="m320.7105 170.2849v-9.28c0-.553.448-1 1-1v-3.605c-.399.063-.806.105-1.223.105-4.349 0-7.88-3.531-7.88-7.87v-3.321c0-1.996-1.624-3.62-3.62-3.62-2.006 0-3.63 1.624-3.63 3.62v2.851c0 3.65-2.969 6.62-6.62 6.62-3.66 0-6.63-2.97-6.63-6.62 0-4.012-3.264-7.276-7.275-7.276h-.846c-.436 0-.861.045-1.276.12v29.276c0 .275.224.5.5.5h15 22c.276 0 .5-.225.5-.5" fill="#36393f"/><path d="m103.4957 177.9295h5.944c1.002-4.253 3.124-9.335 7.522-14.134-4.417 2.355-10.467 6.761-13.466 14.134" fill="#4f545c"/><path d="m89.5147 186.8201c0 .788.641 1.429 1.428 1.429h2.642v-2.643-3.856h-2.642c-.787 0-1.428.64-1.428 1.428z" fill="#36393f"/><path d="m108.6593 192.0037h-6.993c.362 16.8 9.787 25.778 15.76 29.794-9.269-12.185-9.063-25.799-8.767-29.794" fill="#4f545c"/><path d="m248.5304 153.7849v4.8c0 .772.628 1.4 1.4 1.4h10.8c3.529 0 6.4 2.871 6.4 6.4 0 1.705-.674 3.252-1.765 4.4h14.845c.276 0 .5-.225.5-.5v-28.607c-2.369 1.201-4 3.654-4 6.487v4.99c0 3.655-2.974 6.63-6.63 6.63-3.66 0-6.634-2.973-6.634-6.627v-9.204c0-.313-.122-.607-.342-.826-.221-.222-.515-.343-.827-.343-.645 0-1.169.524-1.169 1.168v3.08c0 3.443-2.802 6.247-6.246 6.249h-.158-.004c-1.627 0-3.156-.633-4.307-1.783-1.152-1.152-1.786-2.682-1.786-4.311v-.786c0-1.73-.674-3.358-1.898-4.582-1.085-1.086-2.489-1.736-3.999-1.87v3.008c3.504 2.331 5.82 6.312 5.82 10.827" fill="#36393f"/><path d="m246.9303 137.9851h-3.813c1.893.22 3.642 1.056 5.007 2.421 1.601 1.601 2.483 3.731 2.483 5.996v.786c0 1.094.426 2.122 1.2 2.896.773.772 1.801 1.198 2.894 1.198h.003.158c2.34-.002 4.246-1.907 4.246-4.249v-3.08c0-1.747 1.421-3.168 3.169-3.168.846 0 1.642.329 2.241.928.599.598.928 1.394.928 2.241v9.204c0 2.552 2.077 4.627 4.63 4.627 2.557 0 4.634-2.077 4.634-4.63v-4.99c0-3.96 2.5-7.339 6-8.667v-6.213c0-.276-.224-.5-.5-.5h-26.997c-.564 2.957-3.165 5.2-6.283 5.2m-81.3868-93.7998h-4.152c-8.72 0-15.918 6.601-16.882 15.066h8.99c.758-7.006 5.582-12.826 12.044-15.066m-12.1523 50.7998v-1.334h-9v1.334c0 9.374 7.626 17 17 17h2.6 1.554c-7.05-2.443-12.154-9.146-12.154-17" fill="#4f545c"/><path d="m165.545 111.9851h2.938 7.408 16.313v-23.7c0-1.379 1.121-2.5 2.5-2.5h1.562c-.437-1.597-.69-3.268-.69-5v-7.8c0-4.521 3.679-8.2 8.2-8.2h10.8c.552 0 1 .447 1 1h9.554c0-.553.448-1 1-1h16.953v-3.6c0-9.374-7.626-17-17-17h-60.539c-6.462 2.24-11.287 8.06-12.044 15.067h4.54c.552 0 1 .447 1 1 0 .552-.448 1-1 1h-14.6c-4.411 0-8 3.588-8 8v14.399c0 4.411 3.589 8 8 8h14.6c.552 0 1 .447 1 1s-.448 1-1 1h-4.649v1.334c0 7.854 5.105 14.557 12.154 17" fill="#72767d"/><path d="m204.9762 72.9851c0-2.635 1.439-4.945 3.566-6.2h-4.766c-3.419 0-6.2 2.781-6.2 6.2v7.8c0 1.739.265 3.418.753 5h7.373c-.464-1.591-.726-3.265-.726-5z" fill="#72767d"/><path d="m147.44 65.2517c-2.761 0-5 2.238-5 5v12.399c0 2.762 2.239 5 5 5h6.6c1.105 0 2-.894 2-2v-18.399c0-1.104-.895-2-2-2z" fill="#4f545c"/><path d="m214.5763 66.7849h-6.034c-2.127 1.255-3.566 3.565-3.566 6.2v7.8c0 1.735.262 3.409.725 5h19.002 7 15c.01 0 .019.003.029.003.006 0 .01-.003.015-.003 1.239 0 2.263.908 2.458 2.093.998-2.162 1.571-4.56 1.571-7.093v-7.8c0-3.419-2.781-6.2-6.2-6.2h-18.446c-.552 0-1-.447-1-1h-9.554c0 .553-.448 1-1 1" fill="#b9bbbe"/><path d="m265.1305 166.3855c0-2.427-1.974-4.4-4.4-4.4h-10.8c-1.875 0-3.4-1.526-3.4-3.401v-4.8c0-3.956-2.106-7.42-5.248-9.358v9.358c0 7.446-4.315 13.886-10.566 17h9.494 3 17.52c2.426 0 4.4-1.973 4.4-4.399m-17.0371-39.0244c-.397.268-.875.424-1.39.424h-9.453c1.468 2.582 2.558 5.332 3.224 8.2h6.456c2.426 0 4.4-1.974 4.4-4.4 0-2.021-1.377-3.71-3.237-4.224" fill="#4f545c"/><path d="m182.6197 113.9851c3.404 2.211 5.667 6.037 5.671 10.387.001.779.629 1.413 1.4 1.413h2.563c-.032-.161-.05-.329-.05-.5v-11.3zm39.6626 56.7998c9.374 0 17-7.626 17-17v-10.8c0-5.419-1.491-10.629-4.332-15.2h-3.247-7-14.244c.904.916 1.548 2.076 1.753 3.392.29 1.858-.243 3.74-1.461 5.162-1.222 1.427-2.993 2.246-4.86 2.246h-30.309c-.606 0-1.1.494-1.1 1.1 0 .607.494 1.1 1.1 1.1h2.293c7.169 0 13 5.832 13 13v4.8c0 .772.628 1.4 1.4 1.4h15c3.529 0 6.401 2.871 6.401 6.4 0 1.705-.675 3.252-1.765 4.4h5.063zm-83.5903-18.2373c.101-.101.322-.379.202-.789l-3.694-12.663c-.931-3.194-3.785-5.509-7.103-5.762-.204-.015-.408-.023-.612-.023-2.122 0-4.164.84-5.677 2.353-1.659 1.658-2.508 3.951-2.33 6.29.252 3.318 2.567 6.172 5.761 7.104l12.663 3.693c.41.119.689-.101.79-.203" fill="#72767d"/><path d="m211.6759 166.3855c0-2.427-1.974-4.4-4.4-4.4h-15c-1.875 0-3.4-1.526-3.4-3.401v-4.8c0-6.065-4.935-11-11-11h-2.293c-1.71 0-3.1-1.39-3.1-3.099 0-1.71 1.39-3.101 3.1-3.101h30.308c1.282 0 2.5-.563 3.342-1.547.849-.992 1.206-2.254 1.003-3.552-.328-2.11-2.267-3.701-4.508-3.701h-11.024-5.013c-1.872 0-3.398-1.53-3.4-3.411-.006-5.728-4.671-10.388-10.4-10.388h-7.408-4.492c-9.374 0-17 7.626-17 17v22.799c0 7.775 5.273 14.55 12.822 16.476.06.015.117.035.173.062.665.306 1.368.462 2.09.462h1.135 5.272 31.728 3 4.065c2.426 0 4.4-1.973 4.4-4.399m33.7959-58.5361c-.056-.008-.102-.036-.156-.049l-3.722 3.63c-.195.19-.447.284-.699.284-.26 0-.52-.1-.715-.302-.386-.395-.378-1.028.017-1.414l2.965-2.89c-.083-.216-.144-.44-.169-.671-.256-2.297.305-4.549 1.55-6.425-.022-.017-.048-.029-.069-.049-.752-.678-1.166-1.727-1.166-2.953 0-2.447-1.991-4.438-4.439-4.438s-4.439 1.991-4.439 4.438v.202c0 .667-.083 1.315-.226 1.94v14.633c0 .552-.448 1-1 1v3.692c.552 0 1 .447 1 1v5.808c0 .17-.018.338-.051.5h12.551c.276 0 .5-.225.5-.5v-16.339c0-.553.448-1 1-1v-.163c-.876.157-1.791.194-2.732.066" fill="#4f545c"/><path d="m233.2037 114.7849c-.552 0-1-.447-1-1v-10.782c-1.594 1.779-3.9 2.907-6.471 2.907-4.296 0-7.791-3.494-7.791-7.79v-1.514c0-.765-.546-1.421-1.242-1.491-.396-.04-.776.085-1.071.352-.293.263-.46.638-.46 1.027v5.21c0 2.607-2.121 4.728-4.728 4.728s-4.727-2.121-4.727-4.728v-2.58c0-.872-.624-1.618-1.421-1.698-.451-.05-.887.095-1.224.401-.334.302-.526.729-.526 1.175v6.957c0 4.43-3.604 8.034-8.034 8.034-.109 0-.207-.029-.305-.062v11.354c0 .275.224.5.5.5h11.024 18.976 7c.276 0 .5-.225.5-.5v-5.808c0-.552.448-1 1-1z" fill="#36393f"/><path d="m232.2037 98.907v-10.622c0-.275-.224-.5-.5-.5h-7-30c-.276 0-.5.225-.5.5v23.769c.098-.032.196-.061.305-.061 3.327 0 6.034-2.707 6.034-6.034v-6.957c0-1.01.432-1.979 1.185-2.659.751-.679 1.759-1.008 2.767-.908 1.804.182 3.219 1.802 3.219 3.689v2.58c0 1.505 1.223 2.728 2.727 2.728s2.728-1.223 2.728-2.728v-5.21c0-.953.408-1.868 1.118-2.511.71-.641 1.661-.959 2.614-.858 1.705.172 3.041 1.701 3.041 3.481v1.514c0 3.192 2.598 5.79 5.791 5.79 3.106 0 5.718-2.129 6.471-5.003" fill="#4f545c"/><path d="m247.2472 97.3035v-3.029c-.016-.072-.043-.139-.043-.215v-5.775c0-.275-.225-.5-.5-.5h-12.551c.033.162.051.33.051.5v4.3c1.173-1.236 2.828-2.012 4.665-2.012 3.55 0 6.439 2.888 6.439 6.438 0 .638.182 1.169.499 1.461.021-.021.037-.043.057-.063.429-.418.897-.778 1.383-1.105" fill="#72767d"/><path d="m251.568 105.1609c2.009-1.667 3.037-4.208 2.75-6.797-.038-.333-.295-.598-.627-.642-2.372-.327-4.716.448-6.43 2.119-1.513 1.475-2.335 3.458-2.327 5.539l3.7-3.609c.395-.384 1.029-.379 1.414.018.386.395.378 1.028-.017 1.414l-4.715 4.598c.054.012.1.041.156.048.941.128 1.856.091 2.732-.066 1.161-.21 2.244-.647 3.2-1.273-.304-.423-.243-1.011.164-1.349" fill="#4f545c"/><path d="m391.3009 160.5076c3.525-1.727 7.341-4.54 7.411-7.303.029-1.17-.198-2.004-.675-2.479-.367-.366-.93-.551-1.675-.551-.044 0-.089 0-.135.002h-.001c-1.448.041-3.271.742-4.925 1.658z" fill="#72767d"/><path d="m394.8399 143.0974c-.875.246-2.099.785-3.539 1.479v4.997c1.632-.793 3.356-1.354 4.868-1.397h.001c1.386-.046 2.485.342 3.279 1.132.881.878 1.306 2.206 1.262 3.947-.123 4.875-7.154 8.439-9.306 9.415-.036.017-.068.027-.104.042v6.849c.001 0 .003-.001.005-.001 4.15.448 10.851-1.997 12.995-5.517v-20.981c-2.757-1.364-6.62-.763-9.461.035" fill="#4f545c"/><path d="m403.8009 170.5847c.276 0 .5-.225.5-.5v-2.964c-1.633 1.495-3.843 2.686-6.152 3.464zm-12.5-37.5v9.279c1.169-.542 2.189-.965 2.998-1.192 4.017-1.128 7.423-1.21 10.002-.285v-7.802c0-.275-.224-.5-.5-.5h-12.551c.033.162.051.329.051.5" fill="#72767d"/><path d="m351.8009 170.5847h15 9.376c-.025-.969.077-2.168.203-3.538.276-3.025.656-7.17-.802-8.176-.859-.593-2.481-.013-3.69.578-1.727.844-3.169 2.644-4.695 4.549-1.842 2.299-3.746 4.676-6.506 5.929-.303.138-.655.115-.938-.059-.283-.175-.461-.478-.474-.811-.035-.842.289-1.826.632-2.868.309-.936.824-2.501.511-2.884-.026-.032-.282-.298-1.504-.157-.751.087-1.478 1.013-2.247 1.993-1.135 1.445-2.781 3.536-5.366 2.758v2.186c0 .275.224.5.5.5m4.3515-17.4228c.298-4.073-1.47-8.929-4.852-10.354v16.722c4.093-.484 4.75-4.98 4.852-6.368m17.7256-20.374c-4.354 4.04-10.21 12.016-7.386 16.219 2.923 4.349 13.588-1.033 20.645-4.594.75-.379 1.473-.743 2.164-1.085v-10.243c0-.276-.224-.5-.5-.5h-14.777c-.045.07-.083.143-.146.203m13.3238 22.2451c-1.965 2.684-2.207 5.139-1.437 6.087.572.703 1.857.766 3.536.221v-8.24c-.928.674-1.68 1.36-2.099 1.932m-75.4307-67.9278-2.674-4.422c-.286-.473-.135-1.088.338-1.373.472-.286 1.087-.135 1.373.338l2.746 4.541c.607-2.071.334-4.278-.796-6.146-1.238-2.048-3.313-3.385-5.69-3.667-.029-.004-.058-.005-.087-.005-.3 0-.573.183-.682.469-.854 2.237-.633 4.695.606 6.744 1.093 1.807 2.838 3.057 4.866 3.521m46.5786 35.5459c-.085-.063-.167-.13-.243-.202l-3.64 1.829c-.144.072-.297.106-.448.106-.366 0-.719-.201-.895-.55-.248-.495-.048-1.095.445-1.343l3.702-1.861c-.013-.227-.007-.458.039-.69.2-1.004.56-1.946 1.04-2.814v-16.079c-.016-.07-.043-.135-.043-.209-.009-1.463-1.207-2.654-2.669-2.654-.715 0-1.387.28-1.892.786-.504.508-.78 1.181-.777 1.896l.049 10.167c0 4.626-3.301 8.489-7.668 9.366v9.886c0 .171-.018.339-.051.5h12.551c.276 0 .5-.225.5-.5z" fill="#4f545c"/><path d="m320.2105 130.7849h15 1.501 6.138c.276 0 .5-.225.5-.5v-9.703c-5.215-.065-9.436-4.318-9.436-9.544v-12.371c0-1.009-.821-1.83-1.83-1.83-1.016 0-1.836.821-1.836 1.83v3.769c0 3.281-2.669 5.949-5.949 5.949s-5.949-2.668-5.949-5.949v-1.968c0-.486-.394-.88-.88-.88-.494 0-.889.394-.889.88v10.317c0 2.022-1.645 3.667-3.667 3.667-2.021 0-3.666-1.645-3.666-3.667v-7.051c0-1.075-.874-1.949-1.949-1.949s-1.949.874-1.949 1.949v3.651 22.9c0 .275.224.5.5.5z" fill="#36393f"/><path d="m305.3497 93.2849v7.035c.577-.331 1.237-.535 1.949-.535 2.177 0 3.948 1.771 3.948 3.949v7.051c0 .919.748 1.667 1.667 1.667s1.667-.748 1.667-1.667v-10.317c0-1.588 1.292-2.88 2.88-2.88 1.597 0 2.889 1.292 2.889 2.88v1.968c0 2.177 1.771 3.949 3.949 3.949 2.177 0 3.948-1.772 3.948-3.949v-3.769c0-2.112 1.719-3.83 3.831-3.83 2.118 0 3.836 1.718 3.836 3.83v12.371c0 4.125 3.326 7.482 7.436 7.544v-11.797c0-.553.448-1 1-1s1 .447 1 1v11.556c3.255-.841 5.668-3.791 5.668-7.303l-.049-10.162c-.006-1.251.477-2.429 1.36-3.317.883-.886 2.058-1.375 3.309-1.375 1.012 0 1.945.335 2.712.888v-3.787c0-.275-.224-.5-.5-.5h-12.551c.033.161.051.329.051.5v7.687c0 .553-.448 1.001-1 1.001s-1-.448-1-1.001v-7.687c0-.275-.224-.5-.5-.5h-37c-.276 0-.5.225-.5.5" fill="#4f545c"/><path d="m359.481 119.5203 4.618-2.32c.492-.248 1.094-.05 1.342.444s.049 1.095-.444 1.343l-4.742 2.383c2.018.765 4.24.667 6.189-.313 2.14-1.075 3.634-3.038 4.101-5.387.066-.329-.1-.659-.402-.802-2.164-1.026-4.63-.998-6.77.077-1.888.948-3.271 2.59-3.892 4.575" fill="#72767d"/><g fill="#202225"><path d="m182.7755 80.4519c2.475 0 4.5-2.025 4.5-4.5v-.001c0-2.475-2.025-4.499-4.5-4.499s-4.5 2.024-4.5 4.499v.001c0 2.475 2.025 4.5 4.5 4.5m-108.6099-13.0859c.067-.094.142-.183.221-.268.001-.001.001-.001.001-.001.731-.786 3.014-2.172 4.157-2.172.116 0 .22.013.309.044.063.021.229.078.281.601.088.915-1.365 2.711-3.126 3.425-.651.262-1.528.45-2.01-.153-.261-.328-.187-.987.167-1.476m.736 3.878c.578 0 1.204-.131 1.859-.396 2.274-.921 4.571-3.34 4.364-5.471-.153-1.575-1.087-2.119-1.63-2.303-2.297-.771-5.867 1.905-6.571 2.66-.138.15-.267.304-.381.464-.899 1.242-.944 2.842-.108 3.891.61.764 1.467 1.155 2.467 1.155m5.7391 61.5409c-2.078 0-4.102.394-6.014 1.169-.512.208-.758.791-.551 1.303.007.016.021.027.029.043.224.478.779.708 1.274.507 1.672-.678 3.443-1.022 5.262-1.022 7.72 0 14 6.28 14 14s-6.28 14-14 14-14-6.28-14-14c0-2.089.449-4.099 1.334-5.974.23-.486.028-1.058-.444-1.306-.013-.007-.02-.019-.033-.025-.499-.235-1.095-.021-1.331.478-1.013 2.143-1.526 4.44-1.526 6.827 0 8.822 7.178 16 16 16s16-7.178 16-16-7.178-16-16-16"/><path d="m68.1993 140.4031c.176.128.379.194.583.194.298 0 .593-.132.791-.386.441-.57.931-1.11 1.454-1.604.393-.371.413-.982.058-1.385-.007-.008-.01-.019-.017-.028-.38-.401-1.013-.419-1.414-.04-.598.563-1.157 1.18-1.662 1.83-.338.437-.259 1.065.177 1.403.009.007.021.01.03.016m10.3086.1514c.513-.132.819-.64.722-1.153-.004-.022.002-.043-.004-.065-.137-.535-.681-.861-1.218-.718-4.632 1.196-7.867 5.376-7.867 10.166 0 5.791 4.71 10.5 10.5 10.5 5.789 0 10.5-4.709 10.5-10.5 0-3.837-2.092-7.367-5.46-9.212-.484-.268-1.092-.088-1.358.396-.009.017-.008.035-.016.052-.227.475-.055 1.049.413 1.305 2.727 1.495 4.421 4.353 4.421 7.459 0 4.687-3.813 8.5-8.5 8.5s-8.5-3.813-8.5-8.5c0-3.877 2.618-7.262 6.367-8.23"/><path d="m404.3009 140.8865c-2.579-.925-5.985-.843-10.002.285-.809.228-1.829.651-2.998 1.193v-5.78c0-2.209 1.791-4 4-4h5c2.209 0 4 1.791 4 4zm0 20.243c0 2.452-1.271 4.742-3.378 5.995-2.931 1.742-6.844 2.736-9.617 2.436-.002 0-.004.001-.005.001v-6.849c.036-.015.068-.025.104-.042 2.152-.976 9.183-4.54 9.306-9.415.044-1.741-.381-3.069-1.262-3.947-.794-.79-1.893-1.178-3.279-1.132h-.001c-1.512.043-3.236.604-4.868 1.397v-4.997c1.44-.694 2.665-1.233 3.539-1.479.77-.216 1.614-.418 2.492-.57 3.645-.632 6.969 2.224 6.969 5.924zm0 7.455c0 1.105-.896 2-2 2h-4.152c2.309-.778 4.519-1.969 6.152-3.464zm-15-25.257c-.69.342-1.414.706-2.164 1.085-7.057 3.561-17.722 8.944-20.645 4.594-2.308-3.435 1.59-9.722 5.468-14.109 1.294-1.464 3.143-2.313 5.097-2.313h11.244c.552 0 1 .448 1 1zm0 7.355c-1.638 1.033-3.009 2.209-3.712 3.169-2.356 3.215-2.909 6.642-1.377 8.529.487.6 1.43 1.335 3.126 1.335.565 0 1.221-.092 1.963-.287v6.656c0 .277-.224.5-.5.5h-8.541c-1.17 0-2.086-.999-1.993-2.166.031-.383.066-.781.104-1.189.358-3.907.763-8.335-1.657-10.005-1.348-.93-3.213-.789-5.704.428-2.129 1.04-3.708 3.009-5.378 5.094-1.197 1.494-2.422 3.024-3.857 4.165.01-.032.022-.065.032-.097.547-1.66 1.166-3.542.16-4.775-.633-.776-1.707-1.063-3.286-.879-1.577.185-2.599 1.487-3.588 2.746-.211.27-.41.515-.597.737-1.093 1.289-3.195.522-3.195-1.168v-.426c0-.838.587-1.525 1.393-1.758 3.103-.894 5.149-3.83 5.453-7.983.304-4.154-1.208-8.84-4.266-11.263-1.698-1.346-2.58-3.476-2.58-5.642v-2.819c0-.552.448-1 1-1h16.665c.853 0 1.318.999.761 1.645-3.944 4.568-7.962 11.33-4.895 15.892 1.203 1.789 3.091 2.494 5.366 2.494 5.121 0 12.202-3.572 17.84-6.417.432-.217.851-.428 1.263-.635zm0 10.658c-1.679.545-2.964.483-3.536-.221-.77-.948-.528-3.403 1.437-6.087.419-.572 1.171-1.257 2.099-1.931zm-12.921 5.706c-.055.589-.104 1.148-.141 1.669-.075 1.053-.94 1.869-1.995 1.869h-7.443-15c-.276 0-.5-.223-.5-.5v-2.185c2.585.777 4.231-1.314 5.366-2.759.769-.98 1.496-1.905 2.247-1.993 1.222-.141 1.478.125 1.504.157.313.383-.202 1.948-.511 2.884-.343 1.042-.667 2.026-.632 2.868.013.333.191.637.474.811s.635.198.938.059c2.76-1.253 4.664-3.63 6.506-5.929 1.526-1.905 2.968-3.705 4.695-4.549 1.209-.59 2.831-1.17 3.69-.578 1.458 1.006 1.078 5.151.802 8.176zm-27.079 1.738c0 1.105-.896 2-2 2h-7.59c-1.105 0-2-.895-2-2v-25.647c0-.003.001-.006.001-.009v-9.344c0-.551.448-1 1-1h4.138 5.477c.554 0 1.002.443 1 .996-.011 5.802-.026 35.004-.026 35.004zm-11.641 2c.007-.033.013-.024.018 0zm-2.449-40h-15-14.361c-.276 0-.5-.224-.5-.5v-22.9-3.65c0-1.076.874-1.95 1.949-1.95 1.074 0 1.948.874 1.948 1.95v7.05c0 2.023 1.645 3.667 3.667 3.667s3.667-1.644 3.667-3.667v-10.317c0-.485.394-.88.889-.88.485 0 .88.395.88.88v1.969c0 3.28 2.668 5.948 5.949 5.948 3.28 0 5.948-2.668 5.948-5.948v-3.77c0-1.009.821-1.83 1.837-1.83 1.009 0 1.83.821 1.83 1.83v12.371c0 5.226 4.22 9.48 9.436 9.544v9.703c0 .276-.224.5-.5.5h-6.138zm.501 8.219c0 .708-.705 1.165-1.373.927-.66-.234-1.365-.354-2.083-.325-3.252.059-5.898 2.753-5.898 6.005v3.024c0 3.295-2.729 5.965-6.057 5.867-3.214-.094-5.693-2.897-5.693-6.113v-3.074c0-3.279-2.823-5.911-6.178-5.595-2.923.277-5.072 2.899-5.072 5.836v2.411c0 2.251-1.802 4.501-4.036 4.781-2.855.358-5.29-1.91-5.212-4.714.14-5.029-4.33-9.144-9.361-9.144h-.762c-.435 0-1.276.099-1.276.099l-.021-4.189c-.008-1.11.889-2.015 2-2.015h49.022c1.105 0 2 .896 2 2zm-.001 28.779c0 .553-.448 1-1 1h-11c-.553 0-1-.447-1-1v-7.779c0-.553-.448-1-1-1-.553 0-1 .447-1 1v4.779c0 2.21-1.791 4-4 4h-18.5-11.5c-2.209 0-4-1.79-4-4v-21.857c0-1.075.84-1.964 1.914-2.024 4.039-.227 7.637 2.969 7.488 7.013-.149 4.006 3.284 7.268 7.356 6.831 3.407-.365 5.889-3.43 5.889-6.857v-2.458c0-1.731 1.168-3.307 2.863-3.657 2.33-.481 4.387 1.294 4.387 3.541v.968c0 3.182.266 6.279 2.634 8.404 2.098 1.883 4.841 1.969 6.469 1.714 3.759-.591 6.647-3.843 6.647-7.766v-3.024c0-2.169 1.765-3.966 3.934-4.005.013-.001.027-.001.041-.002 1.873-.07 3.378 1.558 3.378 3.432zm-55-30.147c0 1.043-.537 2.022-1.435 2.553-2.729 1.615-4.565 4.582-4.565 7.976v4.78c0 2.418-1.763 4.582-4.169 4.818-2.762.27-5.096-1.899-5.096-4.605v-9.104c0-.651-.157-1.307-.52-1.846-.699-1.036-1.871-1.557-3.094-1.392-1.595.215-2.724 1.687-2.724 3.297v2.923c0 2.335-1.911 4.247-4.246 4.247h-.158-.003c-1.27 0-2.453-.576-3.249-1.602-.583-.751-.845-1.704-.845-2.655v-.373c0-2.003-.601-3.992-1.858-5.55-1.433-1.778-3.435-2.862-5.632-3.117h3.813c3.119 0 5.72-2.244 6.284-5.201h24.497c1.656 0 3 1.343 3 3zm0 31.149c0 1.105-.896 2-2 2h-13.345c1.076-1.132 1.746-2.653 1.764-4.331.039-3.558-3.114-6.468-6.674-6.468h-10.525c-.774 0-1.401-.627-1.401-1.401v-4.8c0-4.331-2.13-8.17-5.397-10.534-.261-.189-.422-.484-.422-.806v-1.285c0-.678.659-1.153 1.309-.957 1.257.381 2.382 1.143 3.232 2.232.924 1.182 1.355 2.68 1.355 4.181v.341c0 1.493.449 2.983 1.407 4.128 1.183 1.411 2.874 2.198 4.686 2.198h.005.158c3.449 0 6.245-2.796 6.245-6.247v-3.083c0-.643.525-1.168 1.169-1.168.313 0 .606.122.827.343.22.22.342.514.342.826v8.964c0 3.371 2.416 6.38 5.759 6.811 4.044.52 7.506-2.63 7.506-6.573v-4.991c0-.253.012-.503.038-.749.253-2.456 3.962-2.184 3.962.285zm-20.175 2h-17.325-3-9.494c6.251-3.114 10.565-9.554 10.565-17v-7.345c0-.865 1.034-1.334 1.671-.75 2.196 2.009 3.577 4.891 3.577 8.095v4.8c0 1.878 1.523 3.401 3.401 3.401h10.799c2.571 0 4.634 2.215 4.379 4.838-.222 2.287-2.277 3.961-4.573 3.961zm-43.562 0h-1.652c-1.311 0-2.324-1.256-1.933-2.507.18-.578.28-1.189.287-1.824.038-3.605-3.068-6.468-6.674-6.468h-14.726c-.773 0-1.4-.627-1.4-1.401v-4.8c0-7.179-5.821-13-13-13h-2.293c-.607 0-1.1-.493-1.1-1.099 0-.607.493-1.101 1.1-1.101h30.308c1.867 0 3.639-.818 4.861-2.246 1.217-1.422 1.75-3.304 1.461-5.162-.043-.275-.105-.543-.185-.804-.394-1.288.558-2.588 1.905-2.588h10.771 7 2.104c.708 0 1.377.367 1.727.983 2.46 4.329 3.747 9.182 3.747 14.218v10.799c0 9.389-7.611 17-17 17zm-9.698 0h-4.065-3-31.728-5.272-1.135c-.722 0-1.425-.156-2.09-.462-.056-.027-.113-.047-.173-.062-7.549-1.926-12.822-8.701-12.822-16.476v-22.799c0-9.374 7.626-17 17-17h4.492 7.408c5.729 0 10.394 4.66 10.4 10.388.002 1.881 1.528 3.411 3.4 3.411h5.013 11.024c2.241 0 4.18 1.591 4.508 3.701.203 1.298-.154 2.56-1.003 3.552-.842.984-2.06 1.547-3.342 1.547h-30.308c-1.71 0-3.1 1.391-3.1 3.101 0 1.709 1.39 3.099 3.1 3.099h2.293c6.065 0 11 4.935 11 11v4.8c0 1.875 1.525 3.401 3.4 3.401h15c2.426 0 4.4 1.973 4.4 4.4 0 2.426-1.974 4.399-4.4 4.399zm-60.229 0h-23.236c-2.072 0-2.98-2.616-1.353-3.899l.053-.042c.243-.191.391-.483.391-.793v-5.463c0-.025-.009-.049-.011-.074-.003-.037-.008-.072-.015-.109-.014-.076-.037-.146-.067-.215-.009-.021-.009-.042-.02-.063-.005-.009-.012-.014-.017-.023-.052-.092-.114-.177-.192-.249-.008-.008-.019-.012-.028-.02-.058-.051-.12-.098-.189-.135-.015-.007-.032-.009-.047-.016-.027-.013-.055-.02-.083-.029-.073-.026-.145-.043-.22-.052-.034-.004-.066-.006-.1-.006-.078-.001-.155.008-.233.025-.022.005-.044.002-.066.008-.137.041-8.655 2.695-15.04 9.835-.753.842-1.832 1.32-2.961 1.32h-9.44c-.997 0-1.377-1.294-.539-1.835 5.417-3.501 9.34-9.123 10.584-15.681.364-1.917 1.991-3.333 3.942-3.333h11.883c1.292 0 2.566.261 3.764.741.284.113.575.214.872.301l12.664 3.693c.258.075.521.112.783.112.967 0 1.904-.501 2.431-1.407.409-.7.446-1.559.211-2.335-.168-.554.284-1.105.863-1.105h3.36v3.849c0 4.539 1.611 8.767 4.351 12.079 1.624 1.961.252 4.921-2.295 4.921zm-26.51-4.918c-4.208 3.486-6.953 7.291-8.739 10.93 1.143-3.855 3.323-8.276 7.385-12.426.624-.637 1.719-.187 1.719.705v.027c0 .296-.137.576-.365.764zm-17.041 12.063c1.973-4.854 5.27-8.421 8.552-10.964.884-.685 2.055.385 1.454 1.328-2.143 3.364-3.37 6.697-4.062 9.636zm14.799 2c1.104 0 2 .895 2 2v3.677 2.464c0 1.099-.9 2-2 2h-20.71c-1.104 0-2-.896-2-2v-2.464-3.677c0-1.105.896-2 2-2zm.27 15.603h-7.958c-.036-1.512.011-2.706.062-3.462h7.896c.955 0 1.73.774 1.73 1.73v.002c0 .956-.775 1.73-1.73 1.73zm-6.103 22.247c-5.177-5.01-10.525-13.203-10.796-25.776h6.993c-.254 3.431-.442 13.952 5.377 24.571.56 1.023-.736 2.015-1.574 1.205zm6.939 10.714c-4.327-2.502-12.407-8.514-15.973-19.919 5.053 10.604 13.747 15.664 16.915 17.217.344.169.559.514.559.897v.938c0 .773-.833 1.253-1.501.867zm-22.086-32.961c-.955 0-1.73-.774-1.73-1.73v-.002c0-.956.775-1.73 1.73-1.73h2.367c.027 1.188.087 2.347.196 3.462zm-38.674-46.748c0-12.13 9.869-22 22-22s22 9.87 22 22c0 12.131-9.869 22-22 22s-22-9.869-22-22zm80.051 3.763c-.101.102-.38.322-.79.203l-12.663-3.693c-3.194-.932-5.509-3.786-5.761-7.104-.178-2.338.671-4.631 2.33-6.29 1.514-1.513 3.555-2.353 5.678-2.353.203 0 .407.008.611.023 3.318.253 6.172 2.569 7.103 5.762l3.694 12.663c.12.41-.101.689-.202.789zm-81.673-7.981c-.344 1.934-1.981 3.369-3.947 3.369h-3.043c-1.339 0-2.517-.888-2.884-2.176l-13.744-48.104c-.548-1.916.891-3.825 2.884-3.825h93.01c.552 0 1-.447 1-1-.001-.552-.448-1-1-1h-101.958c-1.34 0-2.517-.887-2.885-2.175l-3.132-10.965c-.231-.806-.184-1.69.231-2.418.55-.967 1.533-1.532 2.617-1.532h104.272c2.761 0 5 2.238 5 5v3.911c0 4.107 2.492 7.642 6.042 9.179.908.393 1.885.658 2.909.765v1.39c0 7.413 4.274 13.834 10.483 16.958 1.387.698 1.54 2.575.267 3.463-4.922 3.435-8.15 9.134-8.15 15.579v16.95c-3.039 0-5.713-2.006-6.565-4.924l-1.227-4.207c-.971-3.329-3.481-6.076-6.805-7.066-3.625-1.081-7.423-.068-10 2.511-2.072 2.072-3.133 4.935-2.91 7.857.118 1.56.605 3.036 1.377 4.334.393.661-.092 1.495-.861 1.495h-9.791c-1.965 0-3.602-1.435-3.946-3.369-1.999-11.229-11.828-19.782-23.622-19.782s-21.623 8.553-23.622 19.782zm-8.572-71.833c.106-.049.208-.11.296-.198 1.455-1.453 3.939-3.279 6.151-3.646.599-.095 1.068.04 1.124.146.14.274-.467.843-.869 1.22-.106.1-.207.195-.298.285-.675.67-1.016 1.376-1.014 2.099 0 .034.01.066.012.101h-5.402zm16.029.007h-3.181c.048-.039.103-.087.15-.123.821-.62 1.918-.928 2.498-.704.112.043.41.16.532.818.001.003 0 .006.001.009zm36.971-8.827v8.827h-7.833c-.04-.322-.057-.651-.028-.992.196-2.283 1.628-5.42 3.261-7.14.857-.904 2.129-1.467 3.14-1.412.595.033 1.07.276 1.46.717zm-53-4.355c0-.276.224-.5.5-.5h6.433c-.985.884-1.569 2.031-1.284 3.428.152.744.772 2.262 3.297 2.262.465 0 .994-.051 1.597-.169 4.023-.782 8.012-2.196 11.869-3.564 1.82-.646 3.702-1.313 5.532-1.892.045-.013.077-.046.118-.065h9.438c.275 0 .5.224.5.5v2.89c0 .552.447 1 1 1 .552 0 1-.448 1-1v-2.89c0-.171-.018-.339-.051-.5h12.551c.275 0 .5.224.5.5v1.966c-.42-.174-.864-.298-1.346-.326-1.599-.09-3.447.707-4.705 2.033-1.967 2.073-3.566 5.583-3.803 8.345-.033.393-.03.783.003 1.164h-3.149v-3.499c0-.552-.448-1-1-1-.553 0-1 .448-1 1v3.499h-19.96c-.012-.125-.022-.248-.045-.375-.21-1.13-.841-1.954-1.775-2.316-1.431-.555-3.254.087-4.427.971-.241.182-.504.402-.784.637-.547.458-1.009.816-1.42 1.083h-2.166c-.014-.038-.033-.076-.033-.109 0-.075.041-.292.422-.671l.259-.246c.737-.692 2.11-1.979 1.277-3.596-.609-1.179-2.068-1.397-3.228-1.202-2.165.359-4.414 1.75-6.12 3.192zm10.664-.271c.149-.046.274-.129.381-.229h4.455 6.449c-.068.024-.138.048-.206.072-3.787 1.343-7.704 2.733-11.582 3.486-.878.172-2.377.331-2.552-.531-.347-1.7 2.705-2.69 3.055-2.798zm52.206-9.728c0-.276.224-.5.5-.5h30 4.961c-2.244 2.699-3.74 6.032-4.211 9.682-.025.187-.061.371-.08.558-.563.054-1.108.162-1.64.306-1.271.342-2.441.927-3.459 1.704-.212-.601-.333-1.244-.333-1.916v-1.513c0-1.78-1.336-3.31-3.041-3.482-.952-.096-1.904.217-2.613.858-.711.643-1.119 1.558-1.119 2.511v5.211c0 1.504-1.224 2.727-2.728 2.727-1.503 0-2.727-1.223-2.727-2.727v-2.581c0-1.886-1.414-3.506-3.22-3.689-1.009-.094-2.015.23-2.767.909-.752.68-1.184 1.65-1.184 2.659v6.957c0 2.453-1.473 4.564-3.579 5.507h-2.76zm14.267 17.703c.602.277 1.265.443 1.97.443 2.272 0 4.173-1.612 4.624-3.752.067-.315.104-.64.104-.975v-5.211c0-.389.167-.763.46-1.027.295-.267.674-.394 1.071-.352.696.07 1.242.726 1.242 1.492v1.513c0 1.004.198 1.961.545 2.844.072.182.152.36.237.535-1.491 1.748-2.397 4.008-2.397 6.479v.489c0 1.657-1.343 3-3 3h-12.984c.588-.624 1.076-1.339 1.443-2.125.481-1.029.757-2.172.757-3.382v-6.957c0-.445.191-.873.525-1.175.338-.306.77-.45 1.225-.403.797.081 1.421.827 1.421 1.699v2.581c0 1.901 1.135 3.534 2.757 4.284zm66.643 55.979c.007 1.406-1.13 2.543-2.536 2.543-.776 0-1.399-.636-1.4-1.413-.003-3.39-1.379-6.464-3.598-8.7-.619-.624-.157-1.686.722-1.686h4.789c1.104 0 2 .895 2 2 0 0 .008 4.352.023 7.256zm-30.836-79.056h4.153 60.539c9.388 0 17 7.611 17 17v1.599c0 1.105-.896 2-2 2h-14.952c-.553 0-1 .448-1 1 0 .553.447 1 1 1h18.445c3.425 0 6.201 2.777 6.201 6.201v7.799c0 1.765-.278 3.462-.784 5.062-.219.692-1.075 1.015-1.626.541-.435-.375-1.001-.603-1.62-.603-.005 0-.009.003-.014.003-.01 0-.019-.003-.029-.003h-15-7-19.002-4.081c-2.069 0-3.825-1.573-3.99-3.635-.036-.451-.055-.906-.055-1.365v-7.799c0-3.424 2.776-6.201 6.201-6.201h4.765 6.034c.553 0 1-.447 1-1 0-.552-.447-1-1-1h-10.799c-4.529 0-8.201 3.671-8.201 8.201v7.799c0 1.733.253 3.404.69 5h-1.562c-1.381 0-2.5 1.12-2.5 2.5v21.701c0 1.104-.896 2-2 2h-14.313-7.408-2.938-1.554-2.6c-5.072 0-9.626-2.222-12.74-5.745-3.998-4.521-1.23-11.705 4.74-12.589h4.649c.553 0 1-.448 1-1 0-.553-.447-1-1-1h-14.6c-4.418 0-8-3.582-8-8v-14.4c0-4.418 3.582-8 8-8h14.6c.553 0 1-.447 1-1s-.447-1-1-1h-4.54-6.569c-1.32 0-2.282-1.26-1.935-2.534 1.966-7.213 8.568-12.532 16.395-12.532zm85.856 53.118c-.486.327-.953.687-1.383 1.105-.02.02-.036.042-.057.063-.317-.292-.499-.823-.499-1.461 0-3.55-2.888-6.438-6.439-6.438-1.837 0-3.491.776-4.665 2.012v-4.3c0-.17-.018-.338-.051-.5h12.551c.276 0 .5.225.5.5v5.775c0 .076.027.143.043.215zm-15.043-.137c0 3.379-2.471 6.394-5.835 6.713-.236.023-.476.033-.719.029-3.193-.038-5.708-2.763-5.708-5.957v-1.345c0-1.781-1.336-3.31-3.041-3.482-.954-.1-1.904.217-2.614.859-.711.642-1.118 1.557-1.118 2.51v5.103c0 1.319-.889 2.531-2.184 2.783-1.741.338-3.271-.993-3.271-2.676v-2.58c0-1.886-1.415-3.507-3.22-3.688-1.007-.101-2.015.228-2.766.907-.753.681-1.185 1.649-1.185 2.659v7.095c0 2.332-1.491 4.336-3.53 5.295-1.307.615-2.809-.39-2.809-1.834v-19.773c0-1.104.895-2 2-2h28.5 5.5c1.104 0 2 .896 2 2zm8.289 30.618h6.211c.514 0 .992-.156 1.389-.423 2.064.57 3.533 2.587 3.187 4.898-.328 2.182-2.328 3.726-4.534 3.726h-4.704c-.887 0-1.692-.571-1.935-1.424-.389-1.365-.876-2.699-1.453-4-.582-1.308.408-2.777 1.839-2.777zm110.808 16.854c0-.878 1.043-1.323 1.692-.73 2.268 2.076 3.403 5.925 3.16 9.253-.09 1.212-.602 4.798-3.46 6.007-.658.279-1.392-.214-1.392-.928zm5.97-24.008-3.702 1.86c-.494.249-.693.849-.445 1.343.176.35.529.551.895.551.151 0 .304-.034.448-.106l3.64-1.829c.106.065.136.083.243.149v7.186c0 .552-.448 1-1 1h-11c-.552 0-1-.448-1-1v-9.385c4.367-.877 7.668-4.741 7.668-9.367l-.049-10.167c-.003-.714.272-1.387.777-1.895.946-.95 2.477-1.101 3.783-.112.603.457.792 1.215.777 1.971-.001.078.027.146.044.218v14.334c0 1.057-.245 2.088-.616 3.076-.179.477-.323.972-.424 1.483-.047.232-.052.463-.039.69zm-51.921-22.846c0-2.761 2.238-5 5-5h29c2.209 0 4 1.791 4 4v4.188c0 .553.448 1 1 1s1-.447 1-1v-3.188c0-2.761 2.238-5 5-5h3.712c2.368 0 4.288 1.919 4.288 4.288-.767-.553-1.7-.888-2.713-.888-1.45 0-2.798.656-3.707 1.829-.668.86-.965 1.953-.961 3.042l.049 9.982c0 .231-.011.459-.031.684-.318 3.521-5.637 3.166-5.637-.368v-4.569c0-.552-.448-1-1-1s-1 .448-1 1v7.926c0 2.362-2.735 3.701-4.583 2.231-1.737-1.383-2.853-3.515-2.853-5.904v-12.254c0-1.829-1.236-3.495-3.029-3.864-2.463-.507-4.638 1.37-4.638 3.747v3.593c0 2.062-1.503 3.905-3.554 4.106-2.353.229-4.343-1.623-4.343-3.929v-1.842c0-1.396-.939-2.681-2.31-2.95-1.84-.362-3.459 1.046-3.459 2.823v10.223c0 .831-.566 1.603-1.385 1.738-1.043.172-1.949-.633-1.949-1.644v-6.889c0-1.725-1.042-3.334-2.674-3.893-1.201-.411-2.314-.204-3.223.318zm54.651 20.476c.736-1.416 1.901-2.576 3.372-3.315 2.139-1.076 4.604-1.103 6.767-.079.299.142.47.481.406.804-.468 2.349-1.963 4.312-4.101 5.387-1.551.779-3.274 1.001-4.93.674-.46-.091-.53-.729-.112-.939l3.594-1.805c.493-.248.693-.849.445-1.343s-.85-.693-1.343-.445l-3.42 1.719c-.424.213-.897-.238-.678-.658zm31.3 33.574c1.654-.916 3.477-1.617 4.925-1.658h.001c.046-.002.091-.002.135-.002.745 0 1.308.185 1.675.551.477.475.704 1.309.675 2.479-.07 2.763-3.886 5.577-7.411 7.303zm-269.006 40.145c0-.956.774-1.731 1.73-1.731h15.206c.552 0 1-.447 1-1 0-.552-.448-1-1-1h-14.936c-1.105 0-2-.895-2-2v-.642-1.857c0-1.104.895-2 2-2h49.562c.789 0 1.428.64 1.428 1.429v3.642c0 .789-.639 1.428-1.428 1.428h-18.795c-.552 0-1 .448-1 1 0 .553.448 1 1 1h18.795c.511 0 .992-.12 1.428-.321v2.356c0 .789-.639 1.428-1.427 1.428h-49.833c-.956 0-1.73-.774-1.73-1.73zm-28.71-6.373v.642c0 1.105-.895 2-2 2h-.642c-.789 0-1.428-.639-1.428-1.427v-3.643c0-.789.64-1.429 1.429-1.429h.641c1.105 0 2 .896 2 2zm-1.73 8.105h-.912c-.789 0-1.428-.639-1.428-1.428v-2.356c.436.201.916.321 1.428.321h.912c.956 0 1.73.775 1.73 1.731v.002c0 .956-.774 1.73-1.73 1.73zm220.073-110.211-1.12-1.852c-.286-.473-.901-.624-1.373-.338-.473.285-.624.9-.338 1.373l.899 1.486c.59.976-.652 2.022-1.516 1.279-.611-.526-1.144-1.152-1.575-1.865-1.239-2.049-1.46-4.507-.606-6.743.109-.286.382-.47.682-.47.029 0 .058.001.088.005 2.377.282 4.451 1.619 5.69 3.667.531.879.873 1.833 1.023 2.814.163 1.068-1.294 1.569-1.854.644zm109.047 87.284h-8.674c-3.314 0-6-2.686-6-6v-31.7c0-1.381-1.119-2.5-2.5-2.5h-15-22-3.451c-1.657 0-3-1.343-3-3v-1.721c0-1.135.943-2.067 2.076-1.996.185.012.371.018.557.018 1.49 0 2.98-.348 4.36-1.041 2.688-1.352 4.568-3.816 5.161-6.766.248-1.233-.383-2.488-1.521-3.025-2.721-1.284-5.821-1.246-8.508.104-.2.101-.395.208-.584.321-.68.406-1.541-.049-1.541-.84v-17.566c0-2.369-1.92-4.288-4.288-4.288h-13.212-9.678c-1.079 0-1.799-1.113-1.356-2.097l.002-.005c.236-.499.022-1.095-.477-1.331-.498-.236-1.095-.022-1.332.477l-.998 2.114c-.242.514-.76.842-1.329.842h-10.519c-.515 0-.992-.268-1.258-.709l-1.106-1.829c.179-.22.328-.47.434-.748 1.075-2.816.797-5.911-.763-8.491-1.566-2.589-4.191-4.275-7.199-4.622-1.239-.143-2.403.592-2.846 1.758-1.14 3-.746 6.312 1.097 8.981 1.054 1.528 2.64 2.589 4.365 3.274.967.384 1.9.858 2.798.858.125 0 .248-.012.37-.028l.942 1.556h-5.647c-2.762 0-5 2.239-5 5v7.95 3.65s0 12.341.001 19.099c0 2.379-1.929 4.301-4.308 4.301h-.832-15-3-24.108c-1.509 0-2.823-.895-3.54-2.223-.73-1.354-1.934-2.416-3.391-2.963.013-.104.032-.206.032-.314v-16.338c0-.553-.448-1-1-1s-1 .447-1 1v13.302c0 1.401-1.135 2.535-2.536 2.535h-7.929c-1.4 0-2.535-1.134-2.535-2.535v-2.771c0-.553-.448-1-1-1s-1 .447-1 1v2.771c0 1.401-1.135 2.535-2.536 2.535h-4.964-18.976-8.989c-1.4 0-2.535-1.134-2.535-2.535v-8.317c.097.032.196.061.305.061 4.43 0 8.034-3.604 8.034-8.034v-6.957c0-.445.192-.873.526-1.175.337-.305.773-.451 1.224-.401.797.08 1.421.826 1.421 1.698v2.37c0 2.468 1.799 4.676 4.255 4.915 2.818.275 5.2-1.942 5.2-4.705v-5.21c0-.388.167-.763.46-1.027.295-.267.675-.392 1.07-.351.697.07 1.243.725 1.243 1.491v1.29c0 4.312 3.527 8.036 7.838 8.013 2.552-.013 4.84-1.139 6.424-2.907v10.782c0 .553.448 1 1 1s1-.447 1-1v-14.632c.143-.625.225-1.273.225-1.94v-.074c0-2.104 1.409-4.023 3.465-4.462 2.871-.614 5.414 1.568 5.414 4.334 0 1.226.414 2.274 1.166 2.953.021.02.047.031.069.049-1.245 1.876-1.806 4.128-1.551 6.425.026.231.087.455.17.671l-2.965 2.89c-.396.386-.403 1.019-.018 1.414.196.202.456.302.716.302.252 0 .504-.095.698-.284l3.723-3.63 4.715-4.598c.395-.385.403-1.018.018-1.414-.386-.396-1.019-.402-1.415-.017l-1.243 1.212c-.816.796-2.116-.176-1.589-1.186.373-.715.862-1.375 1.459-1.957 1.712-1.669 4.052-2.443 6.421-2.12.332.046.6.321.637.653.283 2.586-.745 5.122-2.751 6.787-.407.338-.468.926-.163 1.349.013.019.017.042.032.06.353.425.984.484 1.407.13 2.513-2.084 3.806-5.252 3.469-8.49-.132-1.268-1.107-2.305-2.371-2.473-1.618-.215-3.22-.015-4.695.537v-4.499c2.213-3.106 3.53-6.893 3.53-10.99v-7.799c0-4.351-3.409-7.912-7.694-8.175v-3.625c0-10.493-8.507-19-19-19h-64.692c-4.866 0-9.297 1.854-12.661 4.874h-6.913-1.361l.831-3.325c.134-.536-.192-1.078-.727-1.212-.535-.133-1.078.19-1.213.727l-.953 3.81h-2.155l-.952-3.81c-.133-.537-.677-.86-1.213-.727-.535.134-.861.676-.727 1.212l.831 3.325h-22.361c-1.381 0-2.5 1.119-2.5 2.5v23.181h-5.87v-13.182c0-1.381-1.12-2.5-2.5-2.5h-15-22-15c-1.381 0-2.5 1.119-2.5 2.5v13.182l-22.075-.001c-1.473 0-2.931.549-3.914 1.646-1.174 1.311-1.573 3.064-1.097 4.728l3.169 11.091c.613 2.147 2.575 3.626 4.807 3.626h.002c1.71 0 3.213 1.134 3.683 2.778l14.2 49.7c.61 2.136 2.586 3.627 4.807 3.627h3.092c1.952 0 3.578 1.416 3.943 3.334 1.244 6.558 5.168 12.179 10.584 15.68.838.541.458 1.835-.539 1.835h-30.737c-.552 0-1 .448-1 1 0 .553.448 1 1 1h61.61c2.624 0 4.363 2.635 3.429 5.086l-.022.059h-5.59c-1.086 0-1.987.787-2.174 1.82h-2.682c-1.893 0-3.428 1.534-3.428 3.428v3.643c0 .317.057.619.138.911-.081.291-.138.593-.138.91v3.642c0 1.893 1.535 3.428 3.428 3.428h2.682c.186 1.033 1.088 1.821 2.174 1.821h3.883c.575 25.838 21.648 34.185 21.864 34.267.115.044.235.066.356.066.199 0 .398-.06.567-.177.271-.187.433-.494.433-.823v-5.463c0-.015-.01-.027-.01-.04-.006-.139-.033-.275-.095-.401-.009-.016-.023-.029-.033-.045-.043-.078-.089-.156-.155-.221-9.14-9.14-11.438-20.294-11.908-27.163h9.379c1.087 0 1.989-.788 2.175-1.821h51.602c1.893 0 3.428-1.535 3.428-3.428v-9.105c0-1.894-1.535-3.429-3.428-3.429h-51.602c-.187-1.033-1.088-1.82-2.175-1.82h-6.625c.554-1.153 1.215-2.327 1.997-3.503.683-1.028 1.848-1.642 3.082-1.642h43.542 1.135 5.272 31.728 3 4.065 9.698 5.308 17.929 3 17.52 19.48 3 15 22 15 85.764c.553 0 1-.447 1-1 0-.552-.447-1-1-1zm-391.6032.0004h-3.199c-.552 0-1 .447-1 1s.448 1 1 1h3.199c.552 0 1-.447 1-1s-.448-1-1-1m-8.4893 0h-.884c-.553 0-1 .447-1 1s.447 1 1 1h.884c.552 0 1-.447 1-1s-.448-1-1-1"/><path d="m150.8385 188.2488h-1.747c-.552 0-.999.447-1 1 0 .553.448 1 1 1h1.747c.552 0 1-.447 1-1s-.448-1-1-1m85.166-170.209h1.51v1.51c0 .553.448 1 1 1 .553 0 1-.447 1-1v-1.51h1.511c.552 0 1-.447 1-1s-.448-1-1-1h-1.511v-1.51c0-.552-.447-1-1-1-.552 0-1 .448-1 1v1.51h-1.51c-.552 0-1 .447-1 1s.448 1 1 1m20.6894-12.5303h.51c.552 0 1 .447 1 1v.511c0 .552.448 1 1 1s1-.448 1-1v-.511c0-.553.448-1 1-1h.51c.552 0 1-.447 1-1s-.448-1-1-1h-.51c-.552 0-1-.447-1-1v-.51c0-.552-.448-1-1-1s-1 .448-1 1v.51c0 .553-.448 1-1 1h-.51c-.552 0-1 .447-1 1s.448 1 1 1m10.6031 28.5547c.256 0 .512-.098.707-.293l1.184-1.184c.39-.39.39-1.023 0-1.414-.391-.39-1.024-.39-1.414 0l-1.184 1.184c-.391.391-.391 1.023 0 1.414.195.195.451.293.707.293m-5.44 3.0254-1.183 1.184c-.391.39-.391 1.023 0 1.414.195.195.451.293.707.293s.512-.098.707-.293l1.183-1.184c.391-.391.391-1.023 0-1.414s-1.024-.391-1.414 0m5.9165 2.5977c.195.195.451.293.707.293s.512-.098.707-.293c.391-.391.391-1.023 0-1.414l-1.184-1.184c-.39-.39-1.023-.39-1.414 0-.39.391-.39 1.024 0 1.414zm-7.0996-8.5137c-.391.391-.391 1.023 0 1.414l1.183 1.184c.195.195.451.293.707.293s.512-.098.707-.293c.391-.391.391-1.024 0-1.414l-1.183-1.184c-.391-.391-1.023-.391-1.414 0m91.9932 34.5478c.256 0 .512-.098.707-.293l1.183-1.184c.391-.39.391-1.023 0-1.414-.39-.39-1.024-.39-1.414 0l-1.183 1.184c-.391.391-.391 1.023 0 1.414.195.195.451.293.707.293m-5.916 5.9161c.256 0 .512-.098.707-.293l1.183-1.184c.391-.39.391-1.023 0-1.414-.39-.39-1.024-.39-1.414 0l-1.183 1.184c-.391.391-.391 1.023 0 1.414.195.195.451.293.707.293m6.3921-.293c.195.195.451.293.707.293s.512-.098.707-.293c.391-.391.391-1.023 0-1.414l-1.183-1.184c-.391-.39-1.023-.39-1.414 0-.391.391-.391 1.024 0 1.414zm-5.9161-5.916c.195.195.451.293.707.293s.512-.098.707-.293c.391-.391.391-1.023 0-1.414l-1.183-1.184c-.391-.39-1.023-.39-1.414 0-.391.391-.391 1.024 0 1.414zm26.6602-18.4463c.833 0 1.51.678 1.51 1.51 0 .833-.677 1.511-1.51 1.511s-1.51-.678-1.51-1.511c0-.832.677-1.51 1.51-1.51m0 5.021c1.936 0 3.51-1.576 3.51-3.511 0-1.936-1.574-3.51-3.51-3.51s-3.51 1.574-3.51 3.51c0 1.935 1.574 3.511 3.51 3.511"/></g></g></svg>