<svg aria-hidden="false" viewBox="0 0 24 24"><path fill="currentColor" fill-rule="evenodd" clip-rule="evenodd" d="M7 12.001C7 10.8964 6.10457 10.001 5 10.001C3.89543 10.001 3 10.8964 3 12.001C3 13.1055 3.89543 14.001 5 14.001C6.10457 14.001 7 13.1055 7 12.001ZM14 12.001C14 10.8964 13.1046 10.001 12 10.001C10.8954 10.001 10 10.8964 10 12.001C10 13.1055 10.8954 14.001 12 14.001C13.1046 14.001 14 13.1055 14 12.001ZM19 10.001C20.1046 10.001 21 10.8964 21 12.001C21 13.1055 20.1046 14.001 19 14.001C17.8954 14.001 17 13.1055 17 12.001C17 10.8964 17.8954 10.001 19 10.001Z"></path></svg>