<svg preserveAspectRatio="xMinYMin slice" fill="none" viewBox="0 0 1440 900" xmlns="http://www.w3.org/2000/svg"><linearGradient id="a" gradientUnits="userSpaceOnUse" x1="139.71" x2="139.71" y1="779.4" y2="892.29"><stop offset="0" stop-color="#29cc7a"></stop><stop offset="1" stop-color="#038567"></stop></linearGradient><linearGradient id="b"><stop offset="0" stop-color="#ff8c19"></stop><stop offset="1" stop-color="#ffc619"></stop></linearGradient><linearGradient id="c" gradientUnits="userSpaceOnUse" x1="1060.28" x2="1093.87" y1="793.1" y2="826.68"></linearGradient><linearGradient id="d" gradientUnits="userSpaceOnUse" x1="111965" x2="111392" y1="70137.8" y2="67170.1"></linearGradient><linearGradient id="e" gradientUnits="userSpaceOnUse" x1="1040.7" x2="996.43" y1="784.19" y2="826.49"><stop offset="0" stop-color="#d11583"></stop><stop offset="1" stop-color="#eb50a4"></stop></linearGradient><linearGradient id="f" gradientUnits="userSpaceOnUse" x1="1348.25" x2="1333.31" y1="108.699" y2="70.388"><stop offset="0" stop-color="#66bcff"></stop><stop offset="1" stop-color="#8cd9ff"></stop></linearGradient><linearGradient id="g" gradientUnits="userSpaceOnUse" x1="899.19" x2="845.378" y1="154.445" y2="120.344"><stop offset="0" stop-color="#ffc619"></stop><stop offset="1" stop-color="#ffe75c"></stop></linearGradient><path d="m1570-21h-1700v1200h1700z" fill="#5865f2"></path><path d="m805.8 365.9c-2.1 0-4.2.2-6.3.3-8.127-15.103-19.239-28.398-32.66-39.077-13.421-10.678-28.872-18.519-45.415-23.045s-33.833-5.644-50.821-3.285-33.32 8.145-48.004 17.007c-14.41-19.623-34.184-34.664-56.942-43.311s-47.53-10.532-71.334-5.429c-23.805 5.103-45.627 16.978-62.841 34.194-17.213 17.216-29.084 39.041-34.183 62.846-2.707-2.16-5.583-4.1-8.6-5.8-34.2-19.9-78.7-7-99.3 28.6-18.4 31.7-11.6 70.9 14.4 93.1-14.2 9.1-23.3 23-23.3 38.6 0 27.4 28 49.6 62.7 49.6 12.143.078 24.122-2.805 34.9-8.4 11.638 23.909 30.52 43.539 53.959 56.097 23.439 12.557 50.242 17.403 76.594 13.847 26.352-3.555 50.912-15.331 70.185-33.652s32.277-42.253 37.162-68.392c25.434 17.697 56.49 25.418 87.25 21.693s59.075-18.636 79.55-41.893c11.059 3.656 22.829 4.635 34.34 2.856 11.512-1.779 22.437-6.265 31.877-13.089s17.125-15.791 22.425-26.163c5.299-10.373 8.061-21.856 8.058-33.504 0-19.546-7.765-38.292-21.586-52.114-13.822-13.821-32.568-21.586-52.114-21.586z" fill="#6270fc"></path><path d="m1088.9 338.8c-13.59.029-26.84 4.293-37.9 12.2-7.35-14.907-19.52-26.891-34.54-34.008-15.02-7.116-32.009-8.946-48.2-5.194-16.192 3.753-30.639 12.868-40.998 25.866-10.358 12.998-16.019 29.115-16.063 45.736.01 4.323.378 8.638 1.1 12.9-32.9 15-64.1 40.2-87.4 72.8h264.001c16.84-.66 32.76-7.812 44.44-19.958s18.21-28.342 18.21-45.192-6.53-33.046-18.21-45.192-27.6-19.298-44.44-19.958z" fill="#6270fc"></path><path d="m985.092 596.4c11.18-13.1 19.298-28.526 23.768-45.159 4.47-16.632 5.18-34.051 2.07-50.991-3.1-16.94-9.95-32.974-20.027-46.937-10.081-13.964-23.148-25.505-38.25-33.784s-31.859-13.089-49.053-14.079c-17.194-.991-34.392 1.863-50.344 8.354-15.953 6.491-30.258 16.455-41.876 29.169-11.618 12.713-20.257 27.856-25.288 44.327-17.942-11.726-38.745-18.33-60.165-19.1s-42.644 4.324-61.381 14.732-34.276 25.735-44.941 44.327-16.051 39.743-15.576 61.172c.475 21.428 6.792 42.32 18.27 60.422 11.477 18.101 27.68 32.725 46.86 42.293s40.608 13.717 61.973 12c21.365-1.718 41.855-9.237 59.26-21.746 6.244 12.927 16.023 23.82 28.202 31.419 12.18 7.6 26.263 11.594 40.619 11.521 14.355-.073 28.397-4.211 40.498-11.934 12.102-7.724 21.768-18.716 27.881-31.706 5.535 3.775 11.76 6.424 18.318 7.794 6.559 1.369 13.323 1.434 19.907.19s12.858-3.773 18.464-7.442 10.435-8.407 14.211-13.942c3.778-5.535 6.428-11.76 7.798-18.319 1.37-6.558 1.43-13.323.19-19.906-1.25-6.584-3.78-12.858-7.447-18.464-3.669-5.607-8.406-10.436-13.941-14.211z" fill="#707cff"></path><path d="m860 222.1h-410.599c-.585.013-1.161-.146-1.656-.456-.496-.31-.89-.758-1.135-1.29-.244-.531-.328-1.122-.241-1.7s.342-1.118.731-1.554c24.6-29.4 61.4-30.9 101.2-23.2 22.4-86.3 123-85.3 157.3-32.2 36.6-28.2 159-31.3 160.2 54.5.014.77-.126 1.535-.412 2.25-.286.716-.711 1.367-1.251 1.916-.539.549-1.183.985-1.894 1.283-.71.298-1.472.451-2.243.451z" fill="#6a77fc"></path><path d="m-72.0998 509.5c89.2-45.1 152.1-10.2 152.1-10.2 44.0998-13.7 82.9998-4.1 102.9998 11.6 12.5 9.7-15.5 8-78.3 8h-174.4998c-1.326 0-2.5978-.527-3.5355-1.464-.9377-.938-1.4645-2.21-1.4645-3.536-.004-.912.2466-1.807.7236-2.584.477-.778 1.1615-1.406 1.9764-1.816z" fill="#6874f7"></path><path d="m1395.8 803.6c-.19-7.991-3.13-15.672-8.32-21.746-5.2-6.074-12.33-10.168-20.19-11.591-7.87-1.423-15.99-.086-22.98 3.783-6.99 3.87-12.44 10.035-15.41 17.454-2.56-.607-5.17-.909-7.8-.9-5.3.005-10.54 1.172-15.34 3.418s-9.06 5.516-12.46 9.582z" fill="#6874f7"></path><path d="m154.3 385.3c-4.7-22.1-2.4-28.1-18-48.9-5-6.7-27.8-5.3-38-3.4-12.1 2.7-25.3 19.1-25.3 19.1 10.4 56.3 18.9 50.5 22.2 69s-.1 26.3 20.9 26.3 35.7-9 28.8-27.1c11.6-3.7 13.8-14.1 9.4-35z" fill="#4452f2"></path><path d="m-3.50019 307.4c-4.4 48 12 45.7 60.39999 26.9z" fill="#4452f2"></path><path d="m236.5 349.5-43.2 32c2.3 1.3 3.6 1.4 6.1 0s8.2-8 10.6-9.8 9-5.5 12.4-7.4c4.041-2.319 7.771-5.141 11.1-8.4 2.7-3 3.7-4 3-6.4z" fill="#000"></path><path d="m84.2998 163.1c-15.5259.015-30.8255 3.723-44.636 10.817s-25.7358 17.37-34.79142 29.982c-9.05564 12.611-14.98198 27.196-17.28968 42.549-2.3078 15.354-.9309 31.036 4.01713 45.752l92.69997 66.6c25.4102-.812 49.5072-11.478 67.1942-29.739 17.688-18.262 27.577-42.688 27.577-68.111s-9.889-49.849-27.577-68.111c-17.687-18.261-41.784-28.926-67.1942-29.739z" fill="#eb459f"></path><path d="m112.3 270.3c-9.1-4-9.4-3.9-15.0998-11.7-5.7-7.8-12-11-19-11l15.4 60.7c18.5998 2.7 28.6998-7.9 30.0998-17.2s-2.3-16.8-11.4-20.8z" fill="#0c1aad"></path><path d="m104.7 279.6c-3.3-9.7-10.9999-20.5-19.1999-28.4-3.0098-2.842-5.3174-6.346-6.7406-10.233-1.4231-3.888-1.9227-8.053-1.4594-12.167l1.6-14.2c.9282-7.89-.3686-15.883-3.7437-23.075s-8.6942-13.297-15.3563-17.625c-3.026-1.963-6.2843-3.541-9.7-4.7-5.3761-1.78-11.0555-2.461-16.7-2-10.744.808-20.7856 5.647-28.11123 13.547-7.32567 7.901-11.39383 18.279-11.38877 29.053.00031 1.804.10046 3.607.3 5.4l.7 5.8 3.20001 24.8c1.447638 11.221.249 22.625-3.50001 33.3-1.50423 4.236-2.51099 8.632-3 13.1l75.5 62.1c7.4385-2.339 14.3323-6.146 20.2732-11.197 5.941-5.05 10.8084-11.241 14.3147-18.206 3.505-6.965 5.578-14.563 6.096-22.343.517-7.781-.531-15.586-3.084-22.954z" fill="#0c1aad"></path><path d="m67.0996 354.3c7.4385-2.339 14.3323-6.146 20.2732-11.197 5.941-5.05 10.8084-11.241 14.3142-18.206 3.506-6.965 5.579-14.563 6.096-22.343.518-7.781-.531-15.586-3.083-22.954-3.3-9.7-11.0004-20.5-19.2004-28.4" stroke="#000" stroke-linecap="round" stroke-miterlimit="10" stroke-width="2.20102"></path><path d="m83.4 284.8c5.2-11.4 7.9-10.4 19.6-9 9.3 1.1 21.9 18.2 9 29.5s-42.2 9.7-28.6-20.5z" fill="#0c1aad"></path><path d="m46.3999 259.3c1.6569 0 3-1.343 3-3s-1.3431-3-3-3-3 1.343-3 3 1.3431 3 3 3z" fill="#000"></path><path d="m64 258c1.6569 0 3-1.343 3-3s-1.3431-3-3-3-3 1.343-3 3 1.3431 3 3 3z" fill="#000"></path><path d="m64 255c16.1 10 10.9 19.6 24.9 35.8" stroke="#fff" stroke-linecap="round" stroke-miterlimit="10" stroke-width="2.70011"></path><path d="m50.2998 284.5c8.4-7.7 10.9-9.8 14.3-10.1s9.2-.5 9.2-.5l1.6 36.7-22.8 2.6z" fill="#ffc619"></path><path d="m93.4995 269c.1085-.496.1009-1.011-.0221-1.504-.1231-.493-.3583-.951-.6874-1.338-.329-.387-.743-.693-1.2097-.894s-.9734-.291-1.4808-.264h-15.5c-1.1287.008-2.2185.413-3.0781 1.145-.8595.731-1.4338 1.742-1.6219 2.855l-5.2 32.9c-.0906.503-.0669 1.019.0694 1.511.1362.492.3816.947.7179 1.331.3362.385.7546.688 1.2243.889.4696.2.9783.292 1.4884.269h15.5c1.118-.045 2.1887-.463 3.0408-1.188s1.4363-1.715 1.6592-2.812z" fill="#000"></path><path d="m92.4998 265.9 1.8 1.7-4.5 1.1z" fill="#000"></path><path d="m102.2 285.9c-2.2-2.9-4.4996-6.7-9.7996-6.7v6.7z" fill="#ffc619"></path><path d="m95.2003 270.6c.0907-.502.067-1.019-.0693-1.511s-.3817-.947-.7179-1.331c-.3362-.385-.7547-.688-1.2243-.889-.4696-.2-.9784-.292-1.4885-.269h-15.5c-1.118.045-2.1887.463-3.0408 1.188-.852.726-1.4363 1.716-1.6592 2.812l-5.1 32.8c-.1085.497-.1009 1.011.0222 1.504.123.493.3583.951.6873 1.338.3291.387.7431.693 1.2098.894.4666.201.9734.291 1.4807.264h15.5001c1.1286-.008 2.2185-.413 3.078-1.144.8596-.732 1.4339-1.743 1.6219-2.856z" fill="#fff"></path><path d="m91.8999 283.8h6.3c1.2824 0 2.5141.502 3.4301 1.4.916.897 1.444 2.118 1.47 3.4.027.66-.08 1.319-.314 1.937-.234.617-.591 1.182-1.049 1.658-.457.476-1.007.855-1.615 1.114-.6075.259-1.2615.392-1.9221.391h-4.6c-1.4589-.005-2.8735-.502-4.0163-1.409-1.1427-.906-1.9471-2.171-2.2837-3.591-.4-2.7 1.6-4.9 4.6-4.9z" fill="#ffc619"></path><path d="m90.8003 293.4h4.4c.7183.003 1.4273.163 2.0768.47.6494.307 1.2235.753 1.6815 1.306.4579.553.7886 1.201.9687 1.896.1797.696.2047 1.422.0727 2.128-.1906 1.13-.7795 2.154-1.6598 2.888s-1.9941 1.128-3.1399 1.112h-2.7c-1.4455 0-2.8497-.482-3.9907-1.369-1.1409-.887-1.9535-2.13-2.3093-3.531-.4-2.7 1.6-4.9 4.6-4.9z" fill="#ffc619"></path><path d="m79.2 304.9h-15.2v6.04h15.2z" fill="#ffc619"></path><path d="m80.0998 286.3h-9.5c-.4653.017-.9248-.108-1.3176-.358s-.7005-.613-.8824-1.042l-1.1-2.4-1.2-4.9-3.3 18.5h15.6c1.4454 0 2.8496-.482 3.9906-1.369 1.141-.888 1.9536-2.13 2.3094-3.531.4-2.7-1.6-4.9-4.6-4.9z" fill="#ffc619"></path><path d="m78.0998 296.1h-15.3l1.9 9.9h11.7c2.9 0 5.8-2.2 6.2-4.9s-1.5-5-4.5-5z" fill="#ffc619"></path><path d="m190.7 341.9c-1.1-14.9-13.8-15.5-22.8-19.6s-20.1-13.6-31.3-19.7-20.2-4.4-37.1 3.4l24.2 36c12.1 4.2 15.2 10.1 22.3 17.9s15.5 9.8 23.6 7.2c5 6.3 6 7.8 11.9 4.8s15.8-9.3 17.7-17.7-2.4-9.4-8.5-12.3z" fill="#66bcff"></path><path d="m183.1 367h-.1c-5.3-.6-7.8-3.2-11.6-7.2-.9-1.1-2-2.2-3.3-3.5-14.6-.9-21.3-7.7-25.1-12.7-1.7-2.4-4.7-4-7.6-5.7s-5.6-3.2-7.5-5.5c-1.393-1.663-2.601-3.474-3.6-5.4-1.5-2.6-2.6-4.5-4.5-4.7s-4.8 1.2-7.6 2.9c-2.501 1.616-5.187 2.925-8 3.9-.225.063-.466.035-.671-.077-.206-.112-.359-.299-.429-.523-.047-.111-.068-.231-.062-.351s.039-.238.097-.344c.057-.105.138-.197.236-.267s.211-.117.329-.138c2.64-.928 5.158-2.17 7.5-3.7 3.1-1.9 5.8-3.5 8.8-3.2s4.2 2.8 5.8 5.6c1.038 1.794 2.173 3.53 3.4 5.2 1.7 2 4.4 3.5 7.1 5.1s6.2 3.5 8.2 6.1c3.8 5.2 10.1 11.3 24.1 12h.3l.3.2 3.5 3.7c3.6 3.9 5.8 6.2 10.5 6.7.119.013.234.048.338.106.105.057.197.134.271.227.075.093.13.2.163.315.033.114.042.234.028.352-.038.225-.145.432-.306.594-.161.161-.369.268-.594.306z" fill="#45aaf7"></path><path d="m120.4 319.3c-1.193 6.125-1.696 12.364-1.5 18.6" stroke="#000" stroke-linecap="round" stroke-miterlimit="10" stroke-width="2.20102"></path><path d="m136.6 389.7c-11.4 13.1-22.5 11.5-27.5 11.6s-4.9-3.5-5.7-6.4-1.5-7.6-1.5-7.6c-12.7 1-15.2-7.3-16.3-14.9-.8-5.8-3.2-8.4-4.7-13.6-15.3304-.518-30.324-4.635-43.7695-12.017-13.4455-7.383-24.9659-17.825-33.6305-30.483l12.2-11.4 31.3 14.7c19-10 29.6-15.3 40.1-17.6s21.6.4 26.6 14.6 6 18.8 10 25.4l4.4 6.4c4.8 7.3 10.1 17.7 3.5 30.9 1.381 3.597 3.053 7.075 5 10.4z" fill="#8cd9ff"></path><path d="m28.1 341c-1.6-9.7 1.5-17.1 8.1-19.2l-18.5-9.3-11.7 7c6.1602 8.311 13.6231 15.571 22.1 21.5z" fill="#000"></path><path d="m112.8 395.8v-1.8c-2.5-.1-2.9-1.9-4.5-10.3l-.2-1.1h-.7c-5.7-.6-9.7999-3.3-11.2999-14.5-.5569-5.29-2.2268-10.402-4.9-15-.5956-1.103-1.1298-2.238-1.6-3.4-.4-1.1-.9-2.1-1.3-3.1-2.0123-3.666-2.9482-7.826-2.7-12 .1-4.4-.5-6.6-2.1-7.6s-4.8-.3-9.8 2.1l-.7.3c-7.8 3.8-23.5 11.3-39.9 15l2.3 1.4c15.8-3.9 30.8-11.1 38.4-14.8l.7-.3c3.9-1.9 6.8-3 8.1-2.2s1.3 2.5 1.2 6c-.2011 4.47.7638 8.916 2.8 12.9.5 1 .9 1.9 1.3 2.9.5184 1.271 1.1197 2.507 1.8 3.7 1.6 2.9 3.5 6.5 4.6 14.4 1.4 10.2 5 14.9 12.1999 15.9 1.6 8.2 2.2 11.3 6.3 11.5z" fill="#66bcff"></path><path d="m50.2999 282.5c-4.3-2.9-7.4-2.2-12 .5-5.7-3.8-12.4-3.6-19.1-.2-4.9 2.4-16.89995 7.8-22.89995 10.5-.34003.144-.7119.195-1.07812.149-.36623-.046-.71388-.187-1.00794-.41-.29405-.224-.52411-.52-.66701-.86-.1429-.341-.19358-.713-.14694-1.079l2.8-17.2c-13.50004 13.1-15.80004 37.3-9.70004 49.5 6.10004 12.2 26.6 9.1 32.7 4.7s8.2-6 15.8-5.6 13.6.4 22.5-8.4l5.6-2.8c.9-12.9-2.1-21.6-12.8-28.8z" fill="#0c1aad"></path><path d="m50.2998 282.5c-4.3-2.9-7.4-2.2-12 .5-5.7-3.8-12.4-3.6-19.1-.2-4.9 2.4-16.9 7.8-22.9 10.5" stroke="#000" stroke-linecap="round" stroke-miterlimit="10" stroke-width="2.20102"></path><path d="m39.2998 283.5c12.5 7.7 16.1 17.7 17.6 24.4" stroke="#000" stroke-linecap="round" stroke-miterlimit="10" stroke-width="2.20102"></path><path d="m125.6 237.2h-17.1c-.196-.001-.386.069-.533.198-.148.129-.243.308-.267.502l-2.2 13.9c-.042.165-.03.339.034.497.065.158.177.291.322.38.145.09.315.13.485.116.169-.014.33-.081.459-.193l19.3-13.9c.17-.087.303-.232.375-.409s.078-.374.018-.555c-.061-.181-.184-.335-.348-.433-.163-.098-.357-.135-.545-.103z" fill="#fff"></path><path d="m164.9 241.9c10.4 0 20.3-8.4 21.9-18.7v-.5c1.7-10.2-5.6-18.7-16-18.7h-57.8c-10.4 0-20.2998 8.5-21.8998 18.7v.5c-1.7 10.3 5.5 18.7 15.9998 18.7z" fill="#fff"></path><path d="m110.3 230.8c2.151-.074 4.212-.877 5.847-2.276 1.635-1.398 2.747-3.311 3.153-5.424v-.2c.201-.959.178-1.951-.066-2.9-.243-.949-.702-1.83-1.339-2.574-.638-.744-1.438-1.331-2.338-1.717-.901-.386-1.878-.56-2.857-.509-2.156.057-4.226.852-5.865 2.254s-2.745 3.325-3.135 5.446v.2c-.18.957-.143 1.942.108 2.882.252.941.711 1.813 1.345 2.552.633.739 1.425 1.326 2.316 1.719.891.392 1.858.579 2.831.547z" fill="#8cd9ff"></path><path d="m137.7 230.8c2.145-.092 4.197-.901 5.829-2.297 1.631-1.395 2.748-3.298 3.171-5.403v-.2c.18-.957.143-1.942-.108-2.882-.252-.94-.711-1.812-1.345-2.552-.633-.739-1.425-1.326-2.316-1.718-.891-.393-1.858-.58-2.831-.548-2.156.056-4.227.852-5.866 2.254-1.638 1.402-2.745 3.325-3.134 5.446v.2c-.181.957-.144 1.942.108 2.882.251.941.711 1.812 1.344 2.552.634.739 1.425 1.326 2.316 1.718.891.393 1.859.58 2.832.548z" fill="#66bcff"></path><path d="m165 230.8c2.156-.056 4.227-.852 5.865-2.254 1.639-1.402 2.746-3.325 3.135-5.446v-.2c.18-.957.143-1.942-.108-2.882s-.711-1.812-1.344-2.552c-.634-.739-1.425-1.326-2.316-1.718-.891-.393-1.859-.58-2.832-.548-2.156.056-4.227.852-5.865 2.254-1.639 1.402-2.746 3.325-3.135 5.446v.2c-.178.948-.143 1.924.103 2.857.245.933.696 1.8 1.318 2.537.623.737 1.401 1.326 2.28 1.725.878.399 1.834.598 2.799.581z" fill="#8cd9ff"></path><path d="m79.7997 273.1c.0279-.205.0131-.413-.0434-.612s-.1535-.384-.285-.544-.2945-.29-.479-.384c-.1844-.093-.3862-.148-.5926-.16h-1.4c-.3937.028-.7689.178-1.0736.429-.3046.251-.5236.59-.6264.971l-.7 4.7c-.028.205-.0132.414.0433.612.0565.199.1536.385.285.544.1315.16.2946.291.479.384.1844.094.3862.148.5927.16h1.4c.3861-.017.755-.164 1.0458-.419.2909-.254.4863-.6.5542-.981z" fill="#29cc7a"></path><path d="m54.5999 249.7c.9005-2.29 2.3018-4.35 4.1013-6.028s3.9516-2.933 6.2987-3.672c.2 0 .3-.2.2-.4-2.5-6.4-2-10.3-.2-15.4 0-.2-.1-.4-.3-.4-8.1-2.2-11.7-7.2-12.9-11.3-.0346-.062-.0853-.115-.1468-.151-.0616-.036-.1317-.055-.2032-.055-.0714 0-.1416.019-.2031.055-.0616.036-.1123.089-.1469.151-2.7 7.3-7.3 8.2-11.4 8.3-.0642-.02-.1333-.018-.1961.006-.0629.024-.1159.068-.1505.126s-.0488.125-.0404.192c.0085.067.0391.129.087.176 4.8 7.1 2.7 13-.9 17.4-.0795.027-.1453.084-.1828.159s-.0437.161-.0172.241.0836.145.1586.183c.075.037.1619.044.2414.017 8 .2 12.7 4.7 15.3 10.4 0 .08.0316.156.0879.212s.1326.088.2121.088c.0796 0 .1559-.032.2121-.088.0563-.056.0879-.132.0879-.212z" fill="#ffc619"></path><g stroke="#000"><path d="m78.1 296.1h-8.1" stroke-linecap="round" stroke-miterlimit="10" stroke-width="2.20102"></path><path d="m92.4004 293.7h4.5" stroke-linecap="round" stroke-miterlimit="10" stroke-width="2.20102"></path><path d="m51.4004 212.3c2.7-8.3 1.8-13.6.6-16.5" stroke-linecap="round" stroke-miterlimit="10" stroke-width="2.20102"></path><path d="m64.0996 224.2c5.5-.3 8.9-2.1 11.8-5.2" stroke-linecap="round" stroke-miterlimit="10" stroke-width="2.20102"></path><path d="m54.5996 249.7c.1237 1.03.1237 2.071 0 3.1" stroke-linecap="round" stroke-miterlimit="10" stroke-width="2.20102"></path><path d="m39.1 238.7c-4.7 4.4-12.5 4.9-18.1 4" stroke-linecap="round" stroke-miterlimit="10" stroke-width="2.20102"></path><path d="m39.6997 220.8c-2.4-3.7-6.5-7.7-10-8.9" stroke-linecap="round" stroke-miterlimit="10" stroke-width="2.20102"></path><path d="m65.2002 239.6c1.9174.633 3.8943 1.068 5.9 1.3" stroke-linecap="round" stroke-miterlimit="10" stroke-width="2.20102"></path></g><path d="m48.7001 226.8c3.5 8.8 6.5 7.9 7.5 5s1.7-6.6 4-6.6 2 3.8 0 9.7-6.1 7.8-10.7 3.6-5.2-9-5.7-12.3 2.9-4.5 4.9.6z" fill="#c40655"></path><path d="m46.4001 256.3c3.8 18.8-5 29.2-5.8 48.6" stroke="#fff" stroke-linecap="round" stroke-miterlimit="10" stroke-width="2.70011"></path><path d="m79.8995 357.5c-4.7995-11.086-5.0865-23.606-.8-34.9" stroke="#000" stroke-linecap="round" stroke-miterlimit="10" stroke-width="2.20102"></path><path d="m76.0998 339c-2.9-3.7-3.3-9.5-3.3-9.5" stroke="#000" stroke-linecap="round" stroke-miterlimit="10" stroke-width="2.20102"></path><path d="m1.5001 291-9.9 4.7" stroke="#000" stroke-linecap="round" stroke-miterlimit="10" stroke-width="2.20102"></path><path d="m104.5 275.5 5.7.9" stroke="#000" stroke-linecap="round" stroke-miterlimit="10" stroke-width="2.20102"></path><path d="m236.6 349.3c-.66 1.234-1.43 2.405-2.3 3.5-4 5-13.5 11.4-18.7 14.2s-6.7 4-10.4 7.8-8.1 8.8-11.9 6.7-9.7-7.5-13.4-11.4c-.214-.22-.364-.495-.435-.794-.07-.3-.058-.613.035-.906 1.4-5.8 6.7-14.5 15.2-19.9.277-.149.586-.226.9-.226s.623.077.9.226c5.7 3 9 3.5 13.3 2.8 6.4-.9 12.3-4.7 18.8-7.6s7.1.2 8 5.6z" fill="#d11583"></path><path d="m184.4 374.5c2.777 2.565 5.753 4.906 8.9 7 3.8 2.1 8.3-2.9 11.9-6.7s5.2-4.9 10.4-7.8 14.7-9.2 18.7-14.2c.871-1.095 1.64-2.267 2.3-3.5-.9-5.4-2.5-8-8-5.6s-8.4 4.3-12.6 5.9c-1.19.493-2.221 1.304-2.98 2.345-.758 1.041-1.215 2.271-1.32 3.555-.1 1.5-.1 3.1-.1 4.9-7.7-.4-14.6 3-15.1 13 0 0-6.8-2.5-12.1 1.1z" fill="#fa80ba"></path><path d="m234.3 352.8c.802-1.053 1.537-2.155 2.2-3.3.105-.142.177-.305.212-.478.034-.173.03-.351-.012-.522-.153-1.066-.527-2.088-1.1-3-.9 2.3-2.5 4.6-6.5 8.4-6.3 5.9-13.7 8.7-18.1 11-4.01 2.051-7.525 4.952-10.3 8.5-2.279 3.159-5.397 5.618-9 7.1l1.6 1c3.8 2.1 8.3-2.9 11.9-6.7s5.2-4.9 10.4-7.8 14.7-9.2 18.7-14.2z" fill="#ffe75c"></path><path d="m150.6 370.8c-7.3-.9-14.1 3.4-19.2 16.3-1.9-1.1-6.5-2-13.1.2s-8.6 5.3-9.5 7.8c-.498 1.356-.498 2.844 0 4.2.5 1.6 1.3 3.9 2.6 7.7 2 5.8 1.8 11.1 5.3 11.2l42.8-39.9s.5-6.3-8.9-7.5z" fill="#d11583"></path><path d="m150.6 370.8c-7.3-.9-14.1 3.4-19.2 16.3-.6 1.6-1.2 3.6-1.8 5.8-7.3.4-10.4 4-10.8 11.2 0 0-5.3-2.5-7.8 1.7.1.4.3.8.4 1.2 2 5.8 1.8 11.1 5.3 11.2l42.8-39.9s.5-6.3-8.9-7.5z" fill="#fa80ba"></path><path d="m159.1 376.3-3.8-2.6c-6-.2-11 .3-15.6 7s-7.3 13.6-12.4 18.3c-7.3 6.9-13.6 10.2-14.2 14.6.7 2.7 1.5 4.5 3.6 4.6l42.8-39.9c-.028-.684-.163-1.359-.4-2z" fill="#ffe75c"></path><path d="m152.6 371.9 3.5.5c.295.008.584.084.845.223.26.139.485.336.655.577 1.6 1.7 2.2 4.4 2.2 7l-12.4-.5c3.9-2.5 5-4.6 4.4-6.8-.062-.12-.089-.256-.075-.391.013-.135.065-.264.15-.37.084-.106.198-.185.327-.227.129-.043.267-.047.398-.012z" fill="#d11583"></path><path d="m116.9 418.2c12.1.7 17-3.7 21.5-9.7 1.919-2.585 4.172-4.906 6.7-6.9 6.6-5.1 11.7-10.1 14.7-17.4 3.8-9.2-9-10-15.8-2.8s-6.4 14.6-20.2 25.8c-9.4 7.7-10.5 10.8-6.9 11z" fill="#000"></path><path d="m114.354 398.858c.883-.036 1.554-1.183 1.498-2.563-.055-1.379-.816-2.469-1.699-2.433-.883.035-1.553 1.182-1.498 2.562.055 1.379.816 2.469 1.699 2.434z" fill="#fff"></path><path d="m236.9 347.6c-.446-1.352-1.086-2.632-1.9-3.8.013-.053.005-.109-.024-.156-.028-.047-.073-.081-.126-.094s-.11-.005-.156.023c-.047.028-.081.074-.094.127h-.2c-.07.039-.126.098-.161.17-.036.071-.05.151-.039.23 1 2.8 1.6 6 .4 8.2 2.9-2.9 2.3-4.2 2.3-4.7z" fill="#d11583"></path><path d="m188.824 369.539c1.26-.412 1.78-2.278 1.163-4.168-.618-1.89-2.14-3.088-3.4-2.676s-1.781 2.277-1.163 4.167 2.14 3.088 3.4 2.677z" fill="#fff"></path><path d="m160.1 1013.3c-17.869 0-35.17-6.28-48.88-17.738-13.7091-11.461-22.9546-27.376-26.1204-44.962-6-33.7-12-60.4-20.5-82.8l140.0004-51.3c6.6 22.6 16.7 52.1 29.3 102 12.1 48.1-24.2 94.8-73.8 94.8z" fill="#4452f2"></path><path d="m358.9 710.9c-4.7-6-6.7-5-10.2-5 0-5.9-2.8-6.4-4.1-1.5s-2.1 7.2 1.1 11.9 7.5 11.6 9.4 19.8c-4.54 1.234-9.012 2.703-13.4 4.4l7.8 18.1c13-5.8 20.6-10.8 21.4-21.2s-7.2-20.4-12-26.5z" fill="#ffc619"></path><path d="m220.2 686.9c10.4.1 18.2.5 29.2 4 3.729 1.158 6.986 3.485 9.291 6.636s3.535 6.96 3.509 10.864v40h-4l-2.1-3.3v-31.5c.018-3.631-1.186-7.162-3.416-10.028-2.231-2.865-5.359-4.898-8.884-5.772-6.539-1.566-13.194-2.602-19.9-3.1l-5-7.7z" fill="#bde9ff"></path><path d="m265 781.7c-1.011 0-2.012-.199-2.946-.586-.935-.387-1.784-.954-2.499-1.669s-1.282-1.564-1.669-2.498-.586-1.936-.586-2.947v-40.3c0-2.042.811-4 2.255-5.445 1.444-1.444 3.403-2.255 5.445-2.255 2.573 0 5.04 1.022 6.859 2.841s2.841 4.287 2.841 6.859v36.3c0 1.274-.251 2.535-.738 3.712-.488 1.177-1.202 2.246-2.103 3.147s-1.97 1.615-3.147 2.103c-1.177.487-2.438.738-3.712.738z" fill="#000"></path><path d="m141.2 897.9c62.243 0 112.7-50.457 112.7-112.7 0-62.242-50.457-112.7-112.7-112.7-62.2425 0-112.7 50.458-112.7 112.7 0 62.243 50.4575 112.7 112.7 112.7z" fill="#0c1aad"></path><path d="m33.8001 751c-7.6907 24.206-6.9873 50.298 1.9961 74.054 8.9834 23.757 25.7211 43.786 47.5039 56.846 8.9491-10.988 14.8549-24.134 17.1259-38.122 2.272-13.987.829-28.327-4.1832-41.582-5.0124-13.255-13.4187-24.96-24.3773-33.945s-24.0851-14.934-38.0654-17.251z" fill="#039c78"></path><path d="m49.8002 764.6c-7.4-2.8-8.5-4.1-10.3-7.6s-2.8-2.8-6.5-3.3c-.3 1-.6 1.9-.8 2.9 14.8 9.7 18.9 30.7 18.9 30.7l6.2-2.9s0-17.1-7.5-19.8z" fill="#fa94c4"></path><path d="m30.2998 805.5c4.5839 24.878 17.4042 47.49 36.3981 64.198 18.9938 16.708 43.0561 26.54 68.3161 27.914 25.259 1.374 50.246-5.791 70.94-20.34s35.891-35.638 43.146-59.872l-118.4-49.4c-26.8-7.4-73.4002-10.1-100.4002 37.5z" fill="url(#a)"></path><path d="m217.9 866.4c-23.2 0-65.4 4.5-90.1-23.4 17.9 20.2 26.3 35.4 26.9 54 23.604-2.841 45.698-13.1 63.1-29.3z" fill="#000"></path><path d="m45.7998 785.2c13.9-13.7 53.3-23.4 85.4002 0l12.4-13.1c-1-21.6-5.8-22.9-12.4-16s-8 .7-14.5-11-14.7-13.9-20.6002-1.9c-5.9 12-4.6 12.4-9.5 10.7s-14-6.1-21.6-7.2-11.2 9.7-10.5 17.9-1.4 7.9-5.3 6.3-4.9 3.4-3.4 14.3z" fill="#fa80ba"></path><path d="m104.4 769.9c1.565-9.924 1.801-20.013.7-30" stroke="#ff5cb4" stroke-linecap="round" stroke-miterlimit="10" stroke-width="2.28857"></path><path d="m62 751c5.8 12 6.8 18 6.8 18" stroke="#ff5cb4" stroke-linecap="round" stroke-miterlimit="10" stroke-width="2.28857"></path><path d="m368.5 785.2c3.4-11 4.4-11.2-18.2-10.3-20.8.8-47.1 1.6-71.2 3.4-1.2-14.6-5.9-20.4-11.2-28 2-24.1-2.4-47.5-26.3-53.2s-59.1-6.9-82.5 1.8-16.8 42.2-14.3 64.9c0 0-20.7 6.7-28.5 27.2-6.5 17.3-3.4 37.9 15.1 55.7 29.7 28.6 59.6 31.7 87.9 28.4 22-2.7 33.1-19.5 36.2-35.8 40.3 15.1 65.9-7.6 74.8-18.5 10.5-12.6 25.4-16.7 34.4-20.6s12.8-7.4 3.8-15z" fill="#2ad17d"></path><path d="m172 660.8c-8.5-.5-17.5 5.1-11.5 21.2-9.2-.9-18.4 4.2-11.9 19.3l42.3-14.4c-3.7-18.6-10.4-25.5-18.9-26.1z" fill="#fa80ba"></path><path d="m170.1 739.1c0-10.328-8.372-18.7-18.7-18.7s-18.7 8.372-18.7 18.7v29.49c0 10.328 8.372 18.7 18.7 18.7s18.7-8.372 18.7-18.7z" fill="#000"></path><path d="m225.6 688.2v6c-17.6-2.3-39.4-2.5-57.3 1.9-3.507.906-6.616 2.947-8.841 5.805s-3.441 6.373-3.459 9.995v34.8h-21.8v-36.2c-.003-5.196 1.833-10.225 5.182-14.196 3.35-3.972 7.997-6.63 13.118-7.504 32.4-5.7 54.9-3.5 73.1-.6z" fill="#fff"></path><path d="m191.9 685.3c-10.4 0-18.2.5-29.2 3.9-3.711 1.186-6.951 3.519-9.251 6.665-2.3 3.145-3.543 6.939-3.549 10.835v40h4l2.1-3.2v-31.6c.018-3.622 1.234-7.137 3.459-9.995s5.334-4.899 8.841-5.805c6.543-1.531 13.197-2.535 19.9-3l5-7.8z" fill="#bde9ff"></path><path d="m286.6 783.3c-24.4 1.2-51.4 2.8-61.2 3.2s-15.6.7-17.3 5.4 11.7 5.4 28.6 6.5 55 .9 77 0c16.258-.552 32.479-1.92 48.6-4.1 10.3-1.5.5-8.3.5-8.3s3.9-6.2-1.7-6.9-74.5 4.2-74.5 4.2z" fill="#039c78"></path><path d="m261.1 792.6c1-14.6 6.6-15.4 9-11.5 1.546 2.4 2.694 5.034 3.4 7.8.553-.298 1.171-.453 1.8-.453.628 0 1.246.155 1.8.453.665.372 1.225.906 1.627 1.553s.634 1.386.673 2.147z" fill="#fff"></path><path d="m227.8 791.3c3.5-10.1 10.7-8.2 15.7-5.9 1.387.567 2.584 1.517 3.452 2.739.867 1.221 1.37 2.665 1.448 4.161z" fill="#fff"></path><path d="m216.7 790.9c2.7-10.4 5.5-9.7 6.4-5.7s1.2 6.1 1.2 6.1z" fill="#fff"></path><path d="m358.2 787.6c-14.6 2.3-41.1 4.6-75.1 5-.9-8.4 1.7-15.7 12-23.7 4.5-3.5 4.1-6.1 3.7-8.4-1.3-8.3-4.5-16.6-9.3-27.3-7.3-16.5-8.2-30.1 3.9-37.5s26-3.2 35.3 10.5 29.8 43.8 29.5 81.4z" fill="#ffc619"></path><path d="m317.4 713.6c9 8.5 12.4 7.5 14.4 7s.3-5.6-.8-7.9z" fill="#ffae00"></path><path d="m338.2 790c5.9-11 9-14.1 12.6-12.9s3.3 11.1 3.3 11.1z" fill="#fff"></path><path d="m317.9 791.5c4.8-16.4 10.7-14.3 12.7-11.6s4 10.4 4 10.4z" fill="#fff"></path><path d="m302.7 725.5c.7 4.1-.7 7.5-2.8 8s-4.1-1.6-5.3-4.8-.8-8.4 1.4-9.8 5.8 1.6 6.7 6.6z" fill="#fff"></path><path d="m317.4 713.6c-2.5-3.1-1.1-8.8 2-14s7.4-7 11-7 4.7 3.6.5 13.6c5.3-.9 7.7-.8 8.2 2.1s-3 5-10.9 6.3-9.4.7-10.8-1z" fill="#ed5f00"></path><path d="m348.5 705.3c1.4-3.8 3-4.2 3.8-3.8s.6 2.2-.2 5.8-4.9 1.5-3.6-2z" fill="#ffc619"></path><path d="m351.4 705.9c3.1-2.6 4.7-2.3 5.2-1.5s-.5 2.2-2.9 5-5.1-1.1-2.3-3.5z" fill="#ffc619"></path><path d="m213 752.8c6.3.1 8.7-1 9.4-3.6s-3.5-8.1-12.1-8.7-14.4 3.4-15.7 8.6 1.5 4.1 7.4 3.8c3.661-.279 7.336-.313 11-.1z" fill="#fff"></path><path d="m248.3 752.8c-5.2.1-7.1-1-7.7-3.6s2.8-8.1 9.8-8.7 11.8 3.4 12.8 8.6-1.3 4.1-6 3.8c-2.959-.279-5.936-.313-8.9-.1z" fill="#fff"></path><path d="m138.1 726h4.5c3.554 0 6.962 1.412 9.475 3.925s3.925 5.921 3.925 9.475v28.9c0 3.554-1.412 6.962-3.925 9.475s-5.921 3.925-9.475 3.925h-4.5c-2.219 0-4.417-.437-6.467-1.286-2.051-.85-3.914-2.095-5.483-3.664s-2.814-3.432-3.663-5.483c-.85-2.05-1.287-4.248-1.287-6.467v-21.9c0-2.219.437-4.417 1.287-6.467.849-2.051 2.094-3.914 3.663-5.483s3.432-2.814 5.483-3.664c2.05-.849 4.248-1.286 6.467-1.286z" fill="#bde9ff"></path><path d="m137 726h12.9v42.8c0 1.694-.333 3.372-.982 4.937-.648 1.565-1.598 2.987-2.796 4.185s-2.62 2.148-4.185 2.796-3.243.982-4.937.982c-4.19 0-8.209-1.665-11.172-4.628s-4.628-6.982-4.628-11.172v-24.1c0-4.19 1.665-8.209 4.628-11.172s6.982-4.628 11.172-4.628z" fill="#fff"></path><path d="m232.2 718.8c-7.3 0-9.8-2-15-8.9s-11.5-17.5-28.8-16.9c-11.1-15.7-6.4-34.4 4.7-43.6s33.4-9.2 41.4 5.2c4.3 7.6 6 15.9 3.1 30.7 9.4-2.7 13 3.7 11.6 11.7s-8 21.8-17 21.8z" fill="#fa80ba"></path><path d="m135 743.2h-.1c-2.043 0-3.7 1.657-3.7 3.7v14.03c0 2.044 1.657 3.7 3.7 3.7h.1c2.044 0 3.7-1.656 3.7-3.7v-14.03c0-2.043-1.656-3.7-3.7-3.7z" fill="#ff78b9"></path><path d="m252.1 744.7c1.785-.289 3.615.028 5.2.9" stroke="#000" stroke-linecap="round" stroke-miterlimit="10" stroke-width="3.204"></path><path d="m208.4 744.8c2.496-.27 5.02.003 7.4.8" stroke="#000" stroke-linecap="round" stroke-miterlimit="10" stroke-width="3.204"></path><path d="m221.8 729.9c-11.3-.3-17.4-.2-27.5 1.1" stroke="#000" stroke-linecap="round" stroke-miterlimit="10" stroke-width="6.86572"></path><path d="m262.3 731.4c-6.8-1.6-11-1.8-18.6-1.8" stroke="#000" stroke-linecap="round" stroke-miterlimit="10" stroke-width="6.86572"></path><path d="m360.2 787.3c-22.1 3.7-77.3 7.9-145.6 3.4" stroke="#000" stroke-linecap="round" stroke-miterlimit="10" stroke-width="2.28857"></path><path d="m253 838.7c-6.2 8.5-14.9 16.4-31.1 19.7-24.2 4.8-36.8-18-38.6-36.9-.7-8.1-1-16.7 2.6-7.7 7 17 22.8 19.5 34.6 19.2s17.1.9 32.5 5.7z" fill="#039c78"></path><path d="m125.1 852.9c7.2 3.7 16.1 4 16.1 4" stroke="#000" stroke-linecap="round" stroke-miterlimit="10" stroke-width="2.28857"></path><path d="m121.2 780.8c-4.163 5.892-6.902 12.67-8 19.8" stroke="#000" stroke-linecap="round" stroke-miterlimit="10" stroke-width="2.28857"></path><path d="m208.349 817.752c2.175-2.276.668-7.245-3.364-11.099-4.033-3.854-9.065-5.133-11.24-2.857s-.669 7.245 3.364 11.099c4.032 3.854 9.065 5.133 11.24 2.857z" fill="#03ab83"></path><path d="m229.4 717.7c6.8-7.5 10.1-18.3 11.2-25.7" stroke="#eb459f" stroke-linecap="round" stroke-miterlimit="10" stroke-width="2.28857"></path><path d="m217.2 707.6c5.8-23.6 5.8-48.7-10.2-57.5" stroke="#eb459f" stroke-linecap="round" stroke-miterlimit="10" stroke-width="2.28857"></path><path d="m127.479 816.639c2.289-.371 3.659-3.677 3.058-7.384-.6-3.708-2.943-6.412-5.233-6.041-2.29.37-3.659 3.676-3.059 7.384.601 3.707 2.944 6.411 5.234 6.041z" fill="#57f287"></path><path d="m203.2 790.7 5.1-6.8" stroke="#000" stroke-linecap="round" stroke-miterlimit="10" stroke-width="2.28857"></path><path d="m299.454 725.292c.947-.452 1.156-1.99.466-3.435-.689-1.446-2.016-2.252-2.963-1.8s-1.156 1.99-.466 3.435c.689 1.446 2.016 2.252 2.963 1.8z" fill="#000"></path><path d="m320.6 710.2c-.106 0-.208-.042-.283-.117s-.117-.177-.117-.283c.312-2.643 1.237-5.177 2.7-7.4 2.5-3.8 4.4-5.1 6.1-5.5s3.1 0 3.1 1.5c-.333 2.922-1.073 5.783-2.2 8.5 1.872-.402 3.787-.57 5.7-.5 1.1.1 1.1.6.3 1s-5 2-15.3 2.8z" fill="#000"></path><path d="m312.1 770.4c1.1 9.7-7 21.7-7 21.7" stroke="#000" stroke-linecap="round" stroke-miterlimit="10" stroke-width="2.28857"></path><path d="m158.9 868.8-.8-.6.8-.5c.9-.6 1.8-1.3 1.7-2.2s-1-1.5-1.9-1.9l-.9-.5c.222-.254.495-.458.8-.6.8-.7 1.6-1.4 1.5-2.3s-1.1-1.4-2.1-1.8l-.8-.4.6-.7c.8-.7 1.6-1.4 1.4-2.4s-1.2-1.3-2.1-1.7c-.317-.039-.623-.141-.9-.3l.6-.7c.8-.7 1.5-1.5 1.3-2.4s-1.2-1.3-2.2-1.6c-.285-.093-.554-.227-.8-.4l.6-.7c.7-.7 1.5-1.5 1.3-2.4s-1.3-1.2-2.2-1.6l-.9-.3.6-.7c.8-.7 1.5-1.5 1.3-2.4s-1.2-1.3-2.2-1.6l-.8-.4c.2-.2.4-.5.6-.6.404-.264.741-.618.984-1.034.243-.417.386-.885.416-1.366-.2-.9-1.2-1.3-2.1-1.7l-.8-.4.7-.6c.7-.6 1.6-1.3 1.5-2.2s-1.1-1.4-2-1.9l-.7-.5.7-.5c.8-.5 1.7-1.1 1.7-2s-.8-1.5-1.6-2.1l-.7-.6.8-.3 1.1-.6c.227-.103.416-.273.542-.488.125-.215.181-.464.158-.712-.012-.254-.092-.5-.233-.711s-.337-.38-.567-.489c-1.5-.7-1.5-2.3-1.2-8.6v-.3c.4-7-1.2-25.3-3.4-30.4-.043-.113-.11-.217-.194-.304-.085-.087-.187-.155-.299-.202s-.232-.07-.354-.069c-.121.001-.241.026-.353.075-.212.108-.38.288-.471.508-.092.22-.102.465-.029.692 1.9 4.4 3.7 22.2 3.3 29.6v.3c-.3 6-.4 8.5 1.4 9.9h-.1c-1 .4-2 .8-2.1 1.8s.7 1.6 1.6 2.2l.8.6-.8.6c-.9.6-1.8 1.2-1.8 2.1s1 1.5 2 2l.8.5-.7.6c-.8.7-1.7 1.4-1.5 2.3s1.1 1.4 2.1 1.8c.286.093.555.227.8.4-.146.248-.352.454-.6.6-.8.8-1.6 1.5-1.4 2.4s1.2 1.3 2.2 1.7l.9.3c-.207.258-.442.493-.7.7-.7.8-1.5 1.5-1.2 2.4s1.2 1.3 2.1 1.6l.9.4-.6.7c-.7.7-1.5 1.5-1.3 2.4s1.2 1.2 2.2 1.6l.9.3-.7.7c-.7.7-1.4 1.5-1.2 2.4s1.1 1.3 2.1 1.7l.8.3-.6.7c-.8.7-1.5 1.4-1.4 2.3s1.1 1.3 2.1 1.7l.8.4-.7.6c-.8.7-1.6 1.4-1.5 2.3s1 1.4 1.9 1.9l.8.4-.7.5c-.9.6-1.8 1.2-1.7 2.1s.8 1.5 1.7 2.1l.7.5-.8.5c-.9.4-1.8.9-1.9 1.8s.7 1.6 1.5 2.3l.6.6-.8.3c-.9.4-1.9.7-2.2 1.6s.5 1.7 1.1 2.4l.6.7-.8.2c-1 .2-2.1.4-2.4 1.2-.131.456-.136.939-.012 1.398.123.458.37.874.712 1.202l.4.8h-.8c-1.1.1-2.1.1-2.6.9s-.1 1.7.3 2.6l.3.9h-.9c-1-.1-2-.2-2.6.4s-.4 1.7-.1 2.7c.029.307.096.61.2.9l-.9-.2c-1-.2-2-.5-2.7.1s-.5 1.6-.4 2.6.1.7.1 1l-.8-.3c-1-.4-2-.8-2.8-.2-.22.189-.392.43-.5.7h5.9c.017-.436-.017-.872-.1-1.3 0-.3-.1-.7-.1-.9l1 .2c1 .2 2 .5 2.7-.2s.4-1.7.1-2.8c-.028-.307-.096-.609-.2-.9h1c1.1.1 2.1.3 2.7-.5s.2-1.8-.2-2.8l-.4-.9h1c1.1-.1 2.1-.1 2.6-.9s-.1-1.8-.7-2.7l-.4-.9.9-.2c1-.2 2.1-.4 2.4-1.3s-.4-1.8-1.1-2.6l-.6-.7.9-.4c1-.3 2-.7 2.2-1.6s-.6-1.7-1.4-2.4l-.7-.6.8-.5c.9-.5 1.9-1 1.9-2s-.8-1.5-1.7-2.1z" fill="#fff"></path><path d="m355.1 736.1 4.6 1.6" stroke="#000" stroke-linecap="round" stroke-miterlimit="10" stroke-width="2.28857"></path><path d="m73.2 853.9c-4.4-2.1-10-1-18.2 3.9 3.0186 3.503 6.2232 6.841 9.6 10-1.3 9.5-4.4 14.8-7.4 21.2s.1 10.8 5.4 11.6 8.1-1.1 12.1-7.3c2.6251-4.185 4.2979-8.896 4.9-13.8.4353-2.913.6359-5.855.6-8.8 0-9.1-2.3-14.5-7-16.8z" fill="#2ad17d"></path><path d="m79.0998 866.4c6.5-.8 10.9-1.4 13.9 2.7s3 8.7 1.3 17.1-5.8 17-12.2 16.4-8.8-4.3-6.5-13.6c1.6235-7.455 2.7923-15.002 3.5-22.6z" fill="#2ad17d"></path><path d="m93.0001 876.1c4.8-.1 10.5999-.4 12.1999 4.8s.2 12-3 17.4c-3.1999 5.4-7.4999 6.6-10.6999 4.7s-3.3-3.5-.8-10.5 3.2-9.9 2.3-16.4z" fill="#2ad17d"></path><path d="m123.8 888.9c-4.6-.3-13.3-.4-19.4-.7l-1.6 2.9c8.862 3.239 18.105 5.323 27.5 6.2 2.5-4.8-.4-8-6.5-8.4z" fill="#2ad17d"></path><path d="m75.2002 892.4c4.1373-8.04 5.8731-17.1 5-26.1" stroke="#000" stroke-linecap="round" stroke-miterlimit="10" stroke-width="2.28857"></path><path d="m95.3996 876.8c-.1 8.7-1.6 15.7-5.8 21.5" stroke="#000" stroke-linecap="round" stroke-miterlimit="10" stroke-width="2.28857"></path><path d="m182.9 785.9c1.7-6 7.6-12.2 10.3-14" stroke="#039c78" stroke-linecap="round" stroke-miterlimit="10" stroke-width="2.28857"></path><path d="m189.2 751-4.5-2.6" stroke="#039c78" stroke-linecap="round" stroke-miterlimit="10" stroke-width="2.28857"></path><path d="m110.6 669.9c-3.594-2.314-6.656-5.365-8.983-8.95-2.3277-3.586-3.8672-7.625-4.5172-11.85l-2.2-14.6c-.0484-.336-.217-.642-.4745-.863s-.5864-.34-.9255-.337c-.3559-.029-.7094.079-.9883.302-.2788.223-.4619.544-.5117.898l-2.2 14.6c-.6071 4.227-2.1184 8.272-4.4309 11.862-2.3124 3.589-5.3716 6.638-8.9691 8.938l-1.9 1.2c-.2069.15-.3773.345-.4985.57s-.1901.475-.2015.73c.0113.242.0808.477.2027.686s.2925.385.4973.514l1.9 1.2c3.5975 2.3 6.6567 5.349 8.9691 8.938 2.3125 3.59 3.8238 7.636 4.4309 11.862l2.2 14.6c.0498.354.2329.675.5117.898.2789.223.6324.331.9883.302.3391.004.668-.116.9255-.337s.4261-.527.4745-.863l2.2-14.6c.65-4.225 2.1895-8.264 4.5172-11.849 2.327-3.586 5.389-6.637 8.983-8.951l1.8-1.2c.218-.113.4-.286.524-.499.123-.212.185-.455.176-.701.005-.259-.057-.514-.179-.742-.123-.228-.302-.42-.521-.558z" fill="#91ffad"></path><path d="m1246.2 276.5c-2.98-1.902-5.51-4.423-7.42-7.391-1.92-2.968-3.17-6.313-3.68-9.809l-1.8-12c-.05-.293-.19-.561-.41-.761s-.49-.32-.79-.339c-.3.019-.58.139-.79.339-.22.2-.37.468-.41.761l-1.8 12c-.53 3.488-1.8 6.824-3.71 9.788-1.91 2.965-4.43 5.491-7.39 7.412l-1.6 1c-.17.108-.31.255-.42.429-.1.174-.16.369-.18.571.02.202.08.397.18.571.11.174.25.32.42.429l1.6 1c2.96 1.942 5.48 4.486 7.39 7.467 1.92 2.981 3.18 6.331 3.71 9.833l1.8 12c.05.282.19.539.41.722s.5.282.79.278c.29.004.56-.095.78-.278s.37-.44.42-.722l1.8-12c.51-3.51 1.76-6.87 3.67-9.854 1.92-2.985 4.45-5.524 7.43-7.446l1.6-1c.16-.114.29-.264.37-.438.09-.174.13-.367.13-.562s-.04-.388-.13-.562c-.08-.174-.21-.324-.37-.438z" fill="#66bcff"></path><path d="m1334.3 933.2c-5.29-3.4-9.79-7.887-13.2-13.164-3.42-5.277-5.67-11.221-6.6-17.436l-3.2-21.4c-.07-.503-.33-.963-.71-1.295-.39-.331-.88-.51-1.39-.505-.51-.005-1 .174-1.39.505-.38.332-.64.792-.71 1.295l-3.2 21.4c-.94 6.215-3.18 12.159-6.6 17.436-3.41 5.277-7.91 9.764-13.2 13.164l-2.8 1.8c-.29.201-.52.471-.68.785-.16.315-.23.664-.22 1.015v.2c-.01.351.06.7.22 1.015.16.314.39.584.68.785l2.8 1.8c5.29 3.39 9.8 7.875 13.22 13.153 3.41 5.279 5.66 11.228 6.58 17.447l3.2 21.3c.05.522.29 1.006.68 1.357.39.352.9.545 1.42.543.52.002 1.03-.191 1.42-.543.39-.351.63-.835.68-1.357l3.2-21.3c.92-6.219 3.17-12.168 6.58-17.447 3.42-5.278 7.92-9.763 13.22-13.153l2.8-1.8c.3-.196.55-.462.72-.776.18-.314.27-.665.28-1.024v-.2c-.01-.359-.1-.711-.28-1.024-.17-.314-.42-.58-.72-.776z" fill="#3442d9"></path><path d="m659.5 824.4c-1.619-1.028-3.001-2.389-4.053-3.993-1.051-1.603-1.749-3.413-2.047-5.307l-.9-6.6c-.052-.154-.144-.291-.268-.397-.123-.105-.272-.175-.432-.203-.159 0-.312.063-.425.176-.112.112-.175.265-.175.424l-1 6.6c-.298 1.894-.996 3.704-2.048 5.307-1.052 1.604-2.433 2.965-4.052 3.993l-.8.6c-.096.041-.177.112-.231.202-.054.089-.078.194-.069.298-.009.104.015.208.069.298s.135.16.231.202l.8.6c1.619 1.028 3 2.389 4.052 3.993 1.052 1.603 1.75 3.412 2.048 5.307l1 6.6c0 .159.063.312.175.424.113.113.266.176.425.176.16-.028.309-.098.432-.204.124-.105.216-.242.268-.396l.9-6.6c.298-1.895.996-3.704 2.047-5.307 1.052-1.604 2.434-2.965 4.053-3.993l.8-.6c.096-.042.176-.112.23-.202s.078-.194.07-.298c.008-.104-.016-.209-.07-.298-.054-.09-.134-.161-.23-.202z" fill="#ff78b9"></path><path d="m713.2 125.5c-1-.641-1.849-1.492-2.488-2.493-.639-1.002-1.053-2.13-1.212-3.307l-.6-4c0-.2-.2-.3-.4-.3s-.4.1-.4.3l-.6 4c-.16 1.177-.574 2.305-1.213 3.307-.639 1.001-1.487 1.852-2.487 2.493l-.5.3-.2.3c0 .1.1.2.2.3l.5.3c1 .641 1.848 1.492 2.487 2.493.639 1.002 1.053 2.13 1.213 3.307l.6 4c0 .2.2.3.4.3s.4-.1.4-.3l.6-4c.159-1.177.573-2.305 1.212-3.307.639-1.001 1.488-1.852 2.488-2.493l.5-.3c.1-.1.2-.2.2-.3l-.2-.3z" fill="#ff78b9"></path><path d="m1305.2 580.6 30.6 80.5c1.2 3.149 3.44 5.791 6.35 7.484 2.92 1.693 6.32 2.334 9.65 1.816 3.21-.507 6.16-2.054 8.4-4.403 2.24-2.35 3.65-5.37 4-8.597l10.3-102.3z" fill="#4452f2"></path><path d="m1297.4 608.3c53.74 0 97.3-43.563 97.3-97.3s-43.56-97.3-97.3-97.3-97.3 43.563-97.3 97.3 43.56 97.3 97.3 97.3z" fill="#ffe75c"></path><path d="m1297.4 618.2c59.21 0 107.2-47.995 107.2-107.2s-47.99-107.2-107.2-107.2c-59.2 0-107.2 47.995-107.2 107.2s48 107.2 107.2 107.2z" stroke="#29cc7a" stroke-miterlimit="10" stroke-width="6.88325"></path><path d="m1375.7 589-1.2-8.6c-14.47 16.012-33.54 27.154-54.6 31.9h.4c.7.041 1.39.25 1.99.609.61.36 1.12.859 1.49 1.457s.6 1.276.65 1.978c.06.702-.06 1.407-.33 2.056 19.56-4.913 37.4-15.079 51.6-29.4z" fill="#00a37c"></path><path d="m1282 529.2c-2.59-1.738-5.77-2.387-8.83-1.807-3.07.58-5.79 2.342-7.57 4.907-.5.7-7.8 11.5-17.3 27.6.2-24.5.6-41.3 2.3-51.5.6-3.8 1.2-6.9 1.7-9.3.15-.806.11-1.635-.09-2.427-.21-.792-.59-1.529-1.12-2.158-.52-.63-1.18-1.136-1.92-1.484s-1.55-.53-2.37-.531c-1.13-.008-2.24.333-3.17.978-.93.644-1.64 1.56-2.03 2.622-3 8.1-5.1 16.5-5.5 23.6l-5.7 1.4c-2.75 18.29-4.49 36.718-5.2 55.2 8.16 8.99 17.93 16.382 28.8 21.8 9.41-18.05 19.79-35.576 31.1-52.5.87-1.28 1.49-2.72 1.8-4.237.32-1.518.34-3.082.05-4.605s-.88-2.975-1.72-4.271c-.85-1.297-1.95-2.414-3.23-3.287z" fill="#d11583"></path><path d="m1392.6 430.2-.7-1.1c-2.51-3.969-3.97-8.508-4.25-13.194s.63-9.367 2.65-13.606l4.7-9.7c1.66-3.467 2.6-7.234 2.76-11.073.17-3.84-.44-7.673-1.8-11.269-1.35-3.597-3.42-6.882-6.08-9.659-2.65-2.777-5.85-4.987-9.38-6.499-4.18-1.78-8.72-2.536-13.25-2.205-4.52.33-8.91 1.738-12.78 4.106-3.88 2.367-7.13 5.626-9.49 9.505s-3.76 8.265-4.08 12.794c-.32 4.634-1.76 9.121-4.2 13.075s-5.8 7.257-9.8 9.625l-13.6 8c-2.1 1.159-3.95 2.731-5.42 4.621-1.48 1.891-2.56 4.06-3.18 6.379-1.15 4.374-.57 9.024 1.63 12.977 2.2 3.952 5.85 6.899 10.17 8.223l54.5 16.9c2.44.758 5 1.012 7.54.747 2.53-.265 4.99-1.043 7.22-2.287 2.22-1.244 4.17-2.929 5.73-4.95 1.55-2.022 2.68-4.339 3.31-6.81.66-2.454.8-5.017.42-7.529s-1.27-4.919-2.62-7.071z" fill="#eb459f"></path><path d="m1373.9 459.6c.75-1.017 1.19-2.23 1.26-3.491.07-1.26-.23-2.515-.86-3.609-5.49-9.679-14.56-16.812-25.26-19.862-10.7-3.049-22.17-1.77-31.94 3.562-1.05.603-1.91 1.481-2.49 2.538-.58 1.058-.86 2.256-.81 3.462-.01.944-.23 1.875-.64 2.723-.42.848-1.02 1.592-1.76 2.177-3.4 2.8-8.2 8.6-6.5 18.6l65.2 12.8c7.6-9.2 2.5-17.1 2.5-17.1z" fill="#252e99"></path><path d="m1359.6 437.2c-.1.864-.1 1.736 0 2.6.6 6.3 3.9 11.1 7.4 10.8 1.6-.1 3-1.3 4-3.2-3.18-4.034-7.04-7.485-11.4-10.2z" fill="#5865f2"></path><path d="m1326.1 466.1c6.5-.6 11.4-6.1 10.8-12.4-.15-1.513-.6-2.982-1.32-4.321s-1.7-2.522-2.88-3.479c-1.18-.958-2.54-1.673-4-2.102s-2.99-.564-4.5-.398c-6.5.5-11.4 6.1-10.8 12.3.14 1.522.58 3.002 1.29 4.352.72 1.351 1.7 2.545 2.88 3.513s2.54 1.691 4.01 2.127c1.46.435 3 .574 4.52.408z" fill="#5865f2"></path><path d="m1342.9 450.9c-3 5.6-2.2 11.8 1.7 13.9s9.6-.7 12.5-6.2 2.2-11.8-1.7-13.9-9.6.6-12.5 6.2z" fill="#5865f2"></path><path d="m1324.7 433c1.23 1.578 2.83 2.818 4.67 3.605s3.84 1.095 5.83.895c1.93-.154 3.79-.771 5.42-1.798 1.64-1.027 3-2.434 3.98-4.102-6.65-1.134-13.47-.654-19.9 1.4z" fill="#5865f2"></path><path d="m1375.3 569.4c-.2-.5-.3-1-.5-1.4-5.93-16.494-6.07-34.515-.4-51.1l2.8-8c2.07-6.014 2.87-12.389 2.35-18.726-.51-6.338-2.32-12.501-5.33-18.105-3-5.604-7.13-10.527-12.12-14.463-5-3.935-10.75-6.796-16.9-8.406-6.05-1.584-12.35-1.924-18.53-1.001s-12.11 3.091-17.43 6.373c-5.32 3.281-9.92 7.607-13.52 12.717s-6.12 10.897-7.42 17.011l-3.5 16.7c-4.05 19.155-11.61 37.396-22.3 53.8-6.72 10.351-10.24 22.458-10.1 34.8 0 2.678.2 5.352.6 8 13.73 7.083 28.96 10.753 44.4 10.7 15.11.004 30.02-3.509 43.54-10.261 13.52-6.751 25.28-16.556 34.36-28.639z" fill="#eb459f"></path><path d="m1374.8 568c-5-13.921-5.9-28.982-2.6-43.4l-5.2-1.9-11.2 1-4.8 2-10.1 9.1.9 35.8 21.6 11.9c3.36-3.112 6.5-6.454 9.4-10l2.4-3.3z" fill="#d11583"></path><path d="m1358.4 561-2.9-15.2c-5.1 26.5 3.7 40.3 3.7 40.3 2.5-2 7-6.3 7-6.3z" fill="#000"></path><path d="m1370.9 574.7-2.2.4c-33.6 5.9-25.1-45.9-17.7-49.4 0 0-1.9-2-37 17.2-13.9 7.5-29.1 4-34.4-2.8-1.53-1.891-2.56-4.141-2.98-6.539-.42-2.397-.22-4.862.58-7.161-4 9.908-8.92 19.417-14.7 28.4-6.72 10.35-10.24 22.458-10.1 34.8 0 2.678.2 5.352.6 8 19.38 9.925 41.53 13.063 62.91 8.912 21.37-4.152 40.73-15.353 54.99-31.812z" fill="#8cd9ff"></path><path d="m1290.7 606c-.4-2.7-2.7-4.9-5.1-4.9s-4 2.2-3.6 4.9l.3 1.2c2.8.4 5.5.7 8.3.9.18-.685.22-1.401.1-2.1z" fill="#66bcff"></path><path d="m1292.56 586.728c.58-2.756-.84-5.387-3.16-5.877-2.32-.489-4.68 1.348-5.26 4.104s.83 5.387 3.16 5.877c2.32.49 4.67-1.348 5.26-4.104z" fill="#66bcff"></path><path d="m1296.76 569.973c.58-2.756-.83-5.387-3.16-5.877-2.32-.49-4.67 1.347-5.26 4.104-.58 2.756.84 5.387 3.16 5.877 2.32.489 4.68-1.348 5.26-4.104z" fill="#66bcff"></path><path d="m1337.4 447.8-22.4 29.2c5.5 9.7 5.7 7.3 15.2-1.5 0 0 3.8 6 5.4 7.8s3 2.7 9.7-3.2 5-12.2 2.5-21.5c-.9-3.5-1.9-6.7-2.7-9.5-2.53-.627-5.1-1.062-7.7-1.3z" fill="#000"></path><path d="m1277.7 535.8h25.6c.09 0 .18.018.27.053.08.035.16.087.23.152.06.065.11.142.15.227.03.085.05.176.05.268v12.1c0 3.607-1.43 7.066-3.98 9.616-2.55 2.551-6.01 3.984-9.62 3.984-1.79 0-3.55-.352-5.2-1.035-1.65-.684-3.15-1.686-4.42-2.949-1.26-1.262-2.26-2.762-2.94-4.412-.69-1.65-1.04-3.418-1.04-5.204v-12c0-.186.07-.364.21-.495.13-.131.31-.205.49-.205z" fill="#fff"></path><path d="m1295.9 550.4h-10.8l-3.2 15.1c-.2.928-.09 1.898.33 2.752s1.11 1.54 1.97 1.948c1.98.888 4.13 1.347 6.3 1.347s4.32-.459 6.3-1.347c.88-.391 1.59-1.071 2.03-1.926s.57-1.834.37-2.774z" fill="#fff"></path><path d="m1293.5 540.5c1.24-1.023 2.79-1.588 4.4-1.6.94-.116 1.9-.03 2.8.251.91.281 1.75.752 2.46 1.381.71.628 1.28 1.401 1.67 2.266s.59 1.803.59 2.752-.2 1.887-.59 2.752-.96 1.637-1.67 2.266-1.55 1.099-2.46 1.381c-.9.281-1.86.367-2.8.251-1.59-.047-3.11-.649-4.3-1.7" stroke="#66bcff" stroke-linecap="round" stroke-linejoin="round" stroke-width="3.58081"></path><path d="m1391.4 615.6c-2.3-18.7-9.8-59.9-14.3-82.4-.62-3.077-2.44-5.78-5.06-7.514-2.62-1.735-5.81-2.359-8.89-1.736s-5.78 2.443-7.51 5.059c-1.74 2.616-2.36 5.814-1.74 8.891 3.9 19.5 10.1 53 13.1 73.2-12.3-15.2-30.8-42.1-30.8-42.1l-20 13.3c8.5 12.9 20.6 29 33.9 45.4 9.9 12.2 18.3 15.3 24.3 15.3 2.26.005 4.51-.437 6.6-1.3 4.9-2.1 8.4-6.4 9.9-12.2 1.1-3.9 1.2-8.4.5-13.9z" fill="#d11583"></path><path d="m1336.2 569c-6.5-10.1-4.3-18.3-5.5-23.3s-4.8-4.1-13.2-4.1h-18.8c-.97-.023-1.93.294-2.69.896-.77.602-1.3 1.452-1.51 2.404-.12 1.114.13 2.237.7 3.2.35.652.87 1.198 1.5 1.585.64.386 1.36.598 2.1.615h6.7c-5 2-4.4 5.5-3.1 8.2.26.544.41 1.136.42 1.739.02.603-.09 1.203-.32 1.761-1.2 3.3-.6 6.3 3.1 8.3s6.5 6 10 11.3c8.5 12.9 21.2 29.6 34.5 46l16.9-16.6c-12.3-15.1-30.8-42-30.8-42z" fill="#d11583"></path><path d="m1328.4 542.4c-12.2-8.2-15-11.5-20.1-.8s17.7 11 17.7 11z" fill="#d11583"></path><path d="m1246 512.8c-8.5-1.9-18.9-2-26.7-1.5-.78.036-1.54.231-2.23.572-.7.342-1.32.822-1.83 1.412s-.89 1.277-1.12 2.02c-.23.742-.3 1.523-.22 2.296.22 1.653 1.03 3.171 2.28 4.274s2.85 1.716 4.52 1.726h19.6z" fill="#d11583"></path><path d="m1228.7 541.5 11.1-20.5-20.2-.9s-.1 1-.2 3.3c-2.5 1.8-2.6 5.4-1.9 7.7 2 5.9 5.5 9.6 11.2 10.4z" fill="#d11583"></path><path d="m1371.1 394.2c.6 3.1-1 4.1-3.5 2.3-2.76-1.973-5.91-3.326-9.24-3.964-3.34-.639-6.77-.549-10.06.264-.27.079-.56.092-.84.038s-.55-.174-.77-.349c-.22-.176-.4-.403-.52-.662s-.18-.542-.17-.827c0-5.7 2.6-10.5 7.3-12 6.7-2.1 14.3 3.9 17.1 12.4.28.921.51 1.855.7 2.8z" fill="#fff"></path><path d="m1355 361c1.36-.928 2.99-1.381 4.63-1.291 1.65.09 3.22.72 4.47 1.791 2.4 2.2.5 3.6-2.2 3.4-2.56-.201-5.14-.201-7.7 0-2.1.3-1.4-2.3.8-3.9z" fill="#000"></path><path d="m1312.6 507.2c-10.6-2.7-14.8-3.9-16.4-1.4s-.1 4.9 2.4 7.6c-2.7 5.8-2 8.4 3.2 8.4s10.8-3.2 10.8-3.2" stroke="#000" stroke-linecap="round" stroke-linejoin="round" stroke-width="2.23801"></path><path d="m1301.3 510.6c.7 1.675 1.61 3.254 2.7 4.7" stroke="#000" stroke-linecap="round" stroke-linejoin="round" stroke-width="2.23801"></path><path d="m1344.5 467.1c.1-2.7-3-21.4-3-21.4l-7.4-.8c-7.25 4.491-14.17 9.504-20.7 15-3.6 3.1-3.3 5.2-3.8 11.4s-.6 9.8 1.7 9.8 6.8-3.4 15.3-8.8c1.6 3.3 2.9 5.3 4.1 6s2.9.2 8.5-3.7 5.3-4.8 5.3-7.5z" fill="#252e99"></path><path d="m1344.2 470.1c.31-.968.41-1.99.3-3 0-1.5-.9-7.7-1.7-13.1-5.3-.6-10 1.5-10.9 5.2s3 8.9 9.1 10.4c1.05.257 2.12.424 3.2.5z" fill="#5865f2"></path><path d="m1329.2 446.5c10.7-3.5 29.4-1.6 42.5 13.2" stroke="#000" stroke-linecap="round" stroke-linejoin="round" stroke-width="2.23801"></path><path d="m1341.9 448.4-.5-3.3" stroke="#000" stroke-linecap="round" stroke-linejoin="round" stroke-width="2.23801"></path><path d="m1326 471.5c-1.3-3.6-3.3-6.3-1.7-8.5l12.4-17.3" stroke="#000" stroke-linecap="round" stroke-linejoin="round" stroke-width="2.23801"></path><path d="m1339.1 445.1c-1.1 5.2-3.5 13.8-3.5 13.8" stroke="#000" stroke-linecap="round" stroke-linejoin="round" stroke-width="2.23801"></path><path d="m1354.3 384c-2.4 0-4.1 3-4 6.7.01.539.08 1.075.2 1.6 2.76-.396 5.57-.294 8.3.3.09-.629.12-1.265.1-1.9-.2-3.7-2.2-6.7-4.6-6.7z" fill="#000"></path><path d="m1367 611.1 1.7 3.6" stroke="#000" stroke-linecap="round" stroke-linejoin="round" stroke-width="2.23801"></path><path d="m1248.7 561.4-.1 18.4" stroke="#000" stroke-linecap="round" stroke-linejoin="round" stroke-width="2.23801"></path><path d="m1220.1 512.4c10 .5 12.4 1.1 15.4 1.8.68.177 1.32.505 1.86.96.53.455.96 1.025 1.25 1.669.29.643.43 1.343.41 2.048s-.2 1.396-.52 2.023c-1.3 2.8-7.8 3.2-17 2.7" stroke="#000" stroke-linecap="round" stroke-linejoin="round" stroke-width="2.23801"></path><path d="m1223 533.9c5.1-.2 11-.7 13.1-2.7s2-7.2-5.7-7.5" stroke="#000" stroke-linecap="round" stroke-linejoin="round" stroke-width="2.23801"></path><path d="m1238.3 541.8c-3.5.09-7.01-.043-10.5-.4-.3 3.1-.7 6.5-1 10.1 3.3-6.5 13-9.7 11.5-9.7z" fill="#000"></path><path d="m1284.5 560h12.5" stroke="#8cd9ff" stroke-linecap="round" stroke-linejoin="round" stroke-width="2.23801"></path><path d="m1310.9 542.9c-1.6 1.1-2.2 3.5-.8 6.2.2.407.3.858.28 1.313-.01.454-.15.897-.38 1.287-.62 1.039-.92 2.236-.87 3.445.06 1.208.46 2.374 1.17 3.355.17.204.29.455.32.721.04.265-.01.536-.12.779-1.1 2.5-.9 4.2.4 5.7" stroke="#000" stroke-linecap="round" stroke-linejoin="round" stroke-width="2.23801"></path><path d="m1344.5 398.2c7.35-.275 14.71.363 21.9 1.9" stroke="#ff66b0" stroke-linecap="round" stroke-miterlimit="10" stroke-width="2.23801"></path><path d="m1371.5 524.7c-5.4-3.8-15.8-2.4-33.3 5.2" stroke="#000" stroke-linecap="round" stroke-linejoin="round" stroke-width="2.23801"></path><path d="m1356.6 556.4-3-15.6" stroke="#000" stroke-linecap="round" stroke-linejoin="round" stroke-width="2.23801"></path><path d="m1315 444.4c1.91-1.264 3.95-2.304 6.1-3.1" stroke="#000" stroke-linecap="round" stroke-linejoin="round" stroke-width="2.23801"></path><path d="m1312 463h-1.1c-1 2-1 4.3-1.3 8.2-.1 1.2-.2 2.2-.3 3.1.84.417 1.76.656 2.7.7.86.111 1.73.037 2.56-.217.83-.253 1.6-.68 2.25-1.253.65-.572 1.17-1.277 1.53-2.066.36-.79.54-1.647.54-2.514s-.18-1.724-.54-2.514-.88-1.494-1.53-2.067c-.65-.572-1.42-.999-2.25-1.253-.83-.253-1.7-.327-2.56-.216z" fill="#5865f2"></path><path d="m1098.5 797.6c-14.8-13.5-18.6-30.3-18.6-47.5l-41 33.3-9.8 41.2c14.7-3.5 29.6-5.7 45.2.7 1.8.7 3.5 1.5 5.1 2.3.75.395 1.39.971 1.86 1.675s.76 1.515.84 2.358c.08.844-.05 1.694-.39 2.474-.33.78-.85 1.465-1.51 1.993-2.76 2.155-5.39 4.458-7.9 6.9l19.7 2.2c11-5.5 21.7-12.7 23.2-20.7s-1.8-13.3-16.7-26.9z" fill="#ffc619"></path><path d="m1098.5 797.6c-14.8-13.5-18.6-30.3-18.6-47.5l-41 33.3-9.8 41.2c14.7-3.5 29.6-5.7 45.2.7 1.8.7 3.5 1.5 5.1 2.3.75.395 1.39.971 1.86 1.675s.76 1.515.84 2.358c.08.844-.05 1.694-.39 2.474-.33.78-.85 1.465-1.51 1.993-2.76 2.155-5.39 4.458-7.9 6.9l19.7 2.2c11-5.5 21.7-12.7 23.2-20.7s-1.8-13.3-16.7-26.9z" fill="url(#c)"></path><path d="m1129.3 819.4c-18.5-4.5-49.7 11.3-67.3 35.3s-12.3 42.3 9.5 41.1c19.1-1 44.5-16.9 59-35.6s15.4-36.8-1.2-40.8z" fill="url(#d)"></path><path d="m1079.8 750.2c.3 7.7-1.5 17-5.2 26.5-8.9 22.9-26.7 42.1-42.5 47.2l7-1.4c14.3-7.7 29.1-25.1 36.9-45.3 2.09-5.115 3.6-10.448 4.5-15.9-.4-3.72-.6-7.459-.6-11.2z" fill="#ff8c19"></path><path d="m1067.44 790.811c15.34-25.834 16.68-53.359 3.01-61.48-13.68-8.121-37.2 6.239-52.54 32.072-15.34 25.834-16.69 53.359-3.01 61.48 13.68 8.12 37.2-6.239 52.54-32.072z" fill="#ffc619"></path><path d="m1061 732.5c-15.2 0-36.6 21.2-46.6 46.3s-4.5 41.1 10.6 39 33.1-20.9 42.9-43 7.5-42.3-6.9-42.3z" fill="#ff8c19"></path><path d="m1061 732.5c-15.2 0-36.6 21.2-46.6 46.3s-4.5 41.1 10.6 39 33.1-20.9 42.9-43 7.5-42.3-6.9-42.3z" fill="#ff8c19"></path><path d="m1067.9 774.8c1.86-4.315 3.39-8.76 4.6-13.3-.76-.727-1.65-1.296-2.63-1.673-.98-.378-2.02-.557-3.07-.527-10.2 0-24.6 14.3-31.4 31.2-4.3 10.9-4.2 19.6-.7 23.8 12.3-6.8 25.5-22.2 33.2-39.5z" fill="#000"></path><path d="m1066.6 777.5c-2.96 6.098-6.51 11.893-10.6 17.3-6.8 2.5-8.4 8.9-12 16.1-4.5 9-12.2 17.6-25.8 23.4-23.4 10-41.5-.5-47.1-6.1s-2.9-12.5 7.1-13.4 22.6-1.2 31.3-14.1c1.31-1.963 2.45-4.037 3.4-6.2 8-19.1 20.7-19.3 27.8-14.9 9.3-5.9 18.5-6 25.9-2.1z" fill="url(#e)"></path><path d="m1040.7 779.6c-10.9 7.4-12.9 21.1-20.5 30.1s-14.7 10.3-14.7 10.3" stroke="#000" stroke-linecap="round" stroke-miterlimit="10" stroke-width="1.70326"></path><path d="m1071 737.7-1.5 3c-1.9 3.5-4.6 3.7-9.6 3.7s-4.3-2.8 1.7-11.9c1.87.036 3.71.529 5.34 1.435 1.64.906 3.03 2.199 4.06 3.765z" fill="#fff"></path><path d="m1060.6 732.5c-5.4 8.8-7.1 11.9-11.5 11.9s-8.5.2-4.3-5.2c.36-.414.69-.848 1-1.3 5.2-3.3 10.2-5.3 14.8-5.4z" fill="#fff"></path><path d="m1115.5 820.5c0 5.2-.7 9-6.6 13.1" stroke="#000" stroke-linecap="round" stroke-miterlimit="10" stroke-width="1.70326"></path><path d="m1127.1 825.3c-10.5 0-30.5 13.5-44.6 30.2s-17.1 30.3-6.6 30.3 35.2-15.3 48.7-32.7c12.3-15.9 13-27.8 2.5-27.8z" fill="#5865f2"></path><path d="m1096.6 850.1 7.6 20.1" stroke="#ffc619" stroke-linecap="round" stroke-miterlimit="10" stroke-width="5.64323"></path><path d="m1104.9 842.9 7.6 20.1" stroke="#ffc619" stroke-linecap="round" stroke-miterlimit="10" stroke-width="5.64323"></path><path d="m1113.2 835.7 7.6 20" stroke="#ffc619" stroke-linecap="round" stroke-miterlimit="10" stroke-width="5.64323"></path><path d="m1130.9 838.2c-2-5.1-7.8-5.7-12.9-1.2l-20.6 17.9c-5.2 4.5-7.8 12.4-5.9 17.5s7.8 5.6 12.9 1.1l20.7-17.9c5.1-4.5 7.7-12.3 5.8-17.4z" stroke="#ff8c19" stroke-linecap="round" stroke-miterlimit="10" stroke-width="3.76215"></path><path d="m1124.4 854.1c2.09-1.908 4.06-3.945 5.9-6.1 1.73-1.999 2.99-4.355 3.7-6.9 1.2-5-.6-10.5-2.6-15.8-1-2.6-2.1-5.3-3.2-7.9l-1.7-4c-.6-1.4-1.2-2.8-1.7-4.2-1.08-2.859-1.91-5.802-2.5-8.8-.68-3.026-1.12-6.103-1.3-9.2-.06-.992.28-1.966.93-2.714.66-.747 1.58-1.209 2.57-1.286.99-.055 1.97.28 2.71.934.75.655 1.21 1.575 1.29 2.566.1.2 0 .5 0 .6-.47 5.485.08 11.01 1.6 16.3.34 1.328.78 2.632 1.3 3.9l1.4 4.1c1 2.8 2 5.5 2.9 8.3.93 2.88 1.67 5.82 2.2 8.8.69 3.118.59 6.358-.28 9.43s-2.5 5.879-4.72 8.17c-2.01 2.224-4.14 4.328-6.4 6.3-.16.142-.35.25-.56.317-.2.067-.42.092-.63.073-.22-.018-.43-.08-.62-.182-.19-.101-.35-.24-.49-.408-.26-.322-.38-.73-.34-1.14s.23-.789.54-1.06z" fill="#ff8c19"></path><path d="m1129.43 785.828c1.22 1.219 1.9 2.872 1.9 4.596s-.68 3.377-1.9 4.596l-1.28 1.273c-.88.881-2.07 1.377-3.32 1.377s-2.44-.496-3.32-1.377l-1.28-1.273c-1.21-1.219-1.9-2.872-1.9-4.596s.69-3.377 1.9-4.596c1.22-1.219 2.88-1.904 4.6-1.904s3.38.685 4.6 1.904z" fill="#fff"></path><path d="m1127.5 792.473c1.51-1.516 1.51-3.979-.02-5.502-1.52-1.523-3.98-1.529-5.5-.014-1.51 1.515-1.51 3.978.02 5.502 1.52 1.523 3.98 1.529 5.5.014z" stroke="#000" stroke-linecap="round" stroke-miterlimit="10" stroke-width="1.70326"></path><path d="m1013 745.4-14.1-7.9c-.94-.531-1.721-1.301-2.266-2.232-.544-.931-.832-1.989-.834-3.068v-1c-.014-.809.134-1.614.435-2.365.301-.752.748-1.436 1.316-2.013.567-.577 1.244-1.036 1.991-1.348.748-.313 1.548-.474 2.358-.474 1.32-.015 2.6.395 3.66 1.17 1.07.775 1.85 1.873 2.24 3.13z" fill="#4ab0ff"></path><path d="m994.9 783.3-9.1 6.7c-.613.447-1.331.728-2.085.815-.753.088-1.516-.021-2.216-.315l-.599-.3c-1.052-.462-1.881-1.317-2.311-2.382s-.426-2.256.01-3.318c.387-.819 1.018-1.498 1.805-1.946.788-.447 1.694-.641 2.595-.554z" fill="#66bcff"></path><path d="m407.2 61.6999c-3.344-.0159-6.642.7869-9.605 2.3382-2.964 1.5513-5.502 3.8041-7.395 6.5618-5.534-2.4916-11.531-3.7865-17.6-3.8-10.235-.0299-20.139 3.6265-27.9 10.3h82.5c-1.184-4.4046-3.783-8.2979-7.397-11.0806-3.614-2.7826-8.042-4.3003-12.603-4.3194z" fill="#6874f7"></path><path d="m1389.2 100.3c-.1.2-.3.3-.4.2-3.1-2.2001-4.5-1.8001-5.3-.7001-.8 1.1001-.8 2.9001-.5 5.5001.04.25-.01.506-.14.724-.12.219-.32.387-.56.476-.2.1-.5.1-.6-.1-2.1-2.1-3.2-3.1-4.7-3.4s-4.3.5-6.1 3.5l-6-6.5001c3.79-2.8592 6.45-6.9687 7.5-11.6.8-3.7 1.9-3.4 6-.1 4.14 3.328 7.78 7.2348 10.8 11.6.05.055.08.1261.08.2001s-.03.145-.08.2z" fill="#808aff"></path><path d="m1335.7 110.6c.1.029.21.036.31.018.11-.017.2-.057.29-.118 2-2.6 3.5-2.8 4.6-2.3s1.7 1.9 2.2 3.7c.07.184.19.342.35.45s.36.161.55.15c.2-.1.5-.2.6-.5.9-1.9 1.5-2.8 2.6-3.5.8-.432 1.72-.615 2.63-.526.9.089 1.77.446 2.47 1.026l2.7-5.6c-3.43-1.327-6.27-3.8481-8-7.1002-1.9-3.2-2.7-2.7-5.4 1.2-2.76 3.7912-4.8 8.0642-6 12.6002-.04.082-.06.177-.04.268s.07.173.14.232z" fill="#808aff"></path><path d="m1361 122.9c6.85 0 12.4-5.552 12.4-12.4s-5.55-12.4001-12.4-12.4001-12.4 5.5521-12.4 12.4001 5.55 12.4 12.4 12.4z" fill="#808aff"></path><path d="m1396.7 53.2999c-.1.2001-.26.3647-.46.4719-.19.1072-.42.1519-.64.1281-9.2-2.6-12.4-1-13.7 1.7s.2 5.9 2.6 10.3c.21.4248.24.915.09 1.3642-.15.4493-.47.8214-.89 1.0358-.24.151-.52.2311-.8.2311s-.56-.0801-.8-.2311c-5.7-2.6-8.7-3.8-12.2-3.7-2.19.038-4.29.8378-5.95 2.2616-1.67 1.4238-2.78 3.3824-3.15 5.5384l-15.8-7.7c5-8.4 4.6-17 2.5-25.2s.3-9 13-4.8c12.73 4.0805 24.79 10.0106 35.8 17.6.16.1111.28.2643.35.4415s.09.371.05.5585z" fill="#3442d9"></path><path d="m1357.3 57.0999c1.6 6.1 3.1 17.3 3.1 17.3" stroke="#000" stroke-linecap="round" stroke-linejoin="round" stroke-width="1.23296"></path><path d="m1282.2 89.9999c.2.0884.42.1166.63.081s.41-.1333.57-.281c4.2-6 7.4-6.6 10-5.5s3.9 3.8 5.2 7.8c.13.3859.4.7149.74.9329.35.2181.75.3123 1.16.2671.28-.0435.55-.158.78-.3328.23-.1749.41-.4044.52-.6672 2-4.4 3.2-6.5 5.5-8.1s7-2.3 11.2.5l5.3-12.6c-8.9-2.9-14.4-8.6-18.5-14.9s-6.1-5.5-11.6 3.3c-5.67 8.7324-9.7 18.4237-11.9 28.6-.03.1727 0 .3498.07.5096s.18.2955.33.3904z" fill="#3442d9"></path><path d="m1306.9 69.5999c2.28 4.6746 5.28 8.9605 8.9 12.7" stroke="#000" stroke-linecap="round" stroke-linejoin="round" stroke-width="1.23296"></path><path d="m1317.6 80.2999c5.8-2.2 12.9 1.9 15.8 9.1s.6 14.9001-5.2 17.2001l16.8-1.1c14.2-5.5001 21-13.2001 15.5-27.3001-4.1-10.4-13.5-13.8-26.3-8.8s-16.6 10.9-16.6 10.9z" fill="#000"></path><path d="m1328.8 76.6999c5.2 6.7 8.3 10.6 9.7 11.6s1.4.2.6-3.4-3.3-16.3-3.3-16.3z" fill="#fff"></path><path d="m1320.3 84.5999c3.8 4.9 6.1 7.8 7.1 8.5s1 .1.5-2.6-2.5-11.9-2.5-11.9z" fill="#808aff"></path><path d="m1345.6 103.3c-.5-6.2001-.8-9.8001-.5-11.0001s.7-.8 2 1.5l6.3 10.4001z" fill="#fff"></path><path d="m1321.6 104.2c.37-1.103.99-2.108 1.8-2.94.81-.831 1.81-1.4672 2.9-1.8602 3-1 6.6-1.6 14.2.1 2.59.6782 5.32.5032 7.8-.5 7.4-2.8 12.1-11.5 10.5-19.4s-8.9-11.9-16.3-9c-3.59 1.4376-6.57 4.0923-8.4 7.5-5 9.3-6.9 11.8-11.3 13.8-.98.4687-2.04.7368-3.12.7884-1.08.0515-2.16-.1146-3.18-.4884-4.8-1.8-7.1-7.9-4.1-15.4 1.7-4.2044 4.43-7.9199 7.92-10.8129 3.49-2.8931 7.65-4.8732 12.1-5.7627s9.05-.6605 13.39.6665c4.34 1.3269 8.28 3.7103 11.47 6.9361 3.19 3.2259 5.53 7.1933 6.8 11.5461 1.28 4.3529 1.46 8.955.52 13.3932-.94 4.4383-2.97 8.5739-5.9 12.0359-2.93 3.461-6.68 6.141-10.9 7.798-6.76 2.58-14.25 2.437-20.9-.4-5.5-2.4-6.1-5.5-5.3-8z" fill="url(#f)"></path><path d="m1353.9 67.7998c-1.94-1.0374-4.09-1.6295-6.28-1.7333-2.2-.1037-4.39.2834-6.42 1.1333-4.3 1.6-7.7 4.8-10.3 9.3s-8.1 13.4-13 13.6c-1.16.0754-2.32-.1308-3.38-.6009-1.06-.4702-2-1.1904-2.72-2.0991 0 .1.1.2.1.3.48 1.1318 1.27 2.1061 2.28 2.8129s2.19 1.118 3.42 1.1871h.4c4.4-.2 8.8-4.6 14.2-14.3 2.06-3.9513 5.47-7.0366 9.6-8.7 1.82-.7678 3.78-1.1212 5.76-1.0347 1.97.0865 3.9.6107 5.64 1.5347 1.84 1.0359 3.43 2.4723 4.64 4.2032s2.02 3.712 2.36 5.7968c1.9 9.1-3.4 19.2-11.8 22.5002-2.85 1.034-5.95 1.208-8.9.5-8.2-1.6-13.6-1.2-16.6 1.4l-.4.4c-.55.554-.91 1.273-1.02 2.049s.04 1.566.42 2.251c.07-.692.28-1.362.62-1.965.35-.604.82-1.127 1.38-1.535 2.5-2.3 7.7-2.6 15.3-1.1 3.25.825 6.68.615 9.8-.6 9-3.5002 14.7-14.4002 12.7-24.2002-.37-2.3205-1.27-4.5257-2.62-6.4487s-3.12-3.5136-5.18-4.6513z" fill="#eb459f"></path><path d="m1369.5 43.5999c15.8 5.2 26.1 9.4 26.1 9.4" stroke="#000" stroke-linecap="round" stroke-linejoin="round" stroke-width="1.23296"></path><path d="m1383.3 67.2998c-5.2-5.4-12.3-12.3-18.1-18" stroke="#000" stroke-linecap="round" stroke-linejoin="round" stroke-width="1.23296"></path><path d="m1299.9 91.9c-1.3-8.8-.7-22.4-.7-22.4" stroke="#000" stroke-linecap="round" stroke-linejoin="round" stroke-width="1.23296"></path><path d="m1282.6 89.4c3.01-7.2467 6.73-14.18 11.1-20.7" stroke="#000" stroke-linecap="round" stroke-linejoin="round" stroke-width="1.23296"></path><path d="m1273.9 133.3h-.4c-1.7-2.2-2.8-2.3-3.7-1.6-.85 1.098-1.37 2.416-1.5 3.8-.1.4-.4.8-.8.8-.2 0-.3-.1-.4-.3-1-1.9-1.6-2.8-2.7-3.4s-3.2-.6-5.2 1.2l-2.9-6c3.4-1.234 6.22-3.695 7.9-6.9 1.4-2.4 2.1-2 4.4 1.3 2.34 3.291 4.13 6.938 5.3 10.8.02.019.04.042.05.068.01.025.02.053.02.082 0 .028-.01.056-.02.082s-.03.049-.05.068z" fill="#3442d9"></path><path d="m1232.8 129.1c.1.1.3.2.4.1 2.1-1.5 3.2-1.3 3.9-.6.59.921.83 2.017.7 3.1 0 .143.05.282.14.392s.22.184.36.208c.11.016.22.006.32-.029.11-.034.2-.093.28-.171.68-.923 1.62-1.62 2.7-2 .67-.142 1.36-.074 1.99.194.62.269 1.15.725 1.51 1.306l3.2-3.5c-2.2-1.71-3.69-4.165-4.2-6.9-.7-2.7-1.4-2.5-4.2-.3-2.86 2.143-5.27 4.827-7.1 7.9-.02.019-.04.042-.05.068-.01.025-.02.053-.02.082 0 .028.01.056.02.082s.03.049.05.068z" fill="#3442d9"></path><path d="m1251.2 144c5.19 0 9.4-4.209 9.4-9.4 0-5.192-4.21-9.4-9.4-9.4s-9.4 4.208-9.4 9.4c0 5.191 4.21 9.4 9.4 9.4z" fill="#3442d9"></path><path d="m575.1 880.6c.962.917 1.999 1.753 3.1 2.5 4.3 2.8 5.4 5.9 3.5 8.4s-7.2 2.3-11.6-1-6.3-8.2-4.3-11 5.5-2.5 9.3 1.1z" fill="#ffc069"></path><path d="m612.1 924.7c9.9-6 8.9-13.5-2.2-16.7l-20.4-5.8c-11.1-3.2-28.2-.9-38.1 5l-57 34.5c-9.9 6-8.9 13.5 2.2 16.6l20.4 5.9c11.1 3.2 28.2.9 38.1-5.1z" fill="#3442d9"></path><path d="m611.2 912.9c9.8-6 8.8-13.5-2.3-16.7l-20.4-5.8c-11.1-3.2-28.2-.9-38.1 5l-57 34.5c-9.9 6-8.9 13.5 2.2 16.7l20.4 5.8c11.1 3.2 28.2.9 38.1-5z" fill="#5865f2"></path><path d="m614.9 910.1c-1.159 1.028-2.396 1.965-3.7 2.8l-1.2.7-41.9-12.1-18.8-5.4 1.1-.7c9.9-5.9 27.1-8.2 38.1-5l20.4 5.9c9.5 2.7 11.6 8.5 6 13.8z" fill="#eb459f"></path><path d="m555.3 946.7 54.7-33.1-60.7-17.5-54.8 33.1z" fill="#3442d9"></path><path d="m552.3 921.4-14.1-44.4" stroke="#000" stroke-linecap="round" stroke-miterlimit="10" stroke-width="2.09596"></path><path d="m546.7 915.3c6.462 0 11.7-5.238 11.7-11.7s-5.238-11.7-11.7-11.7-11.7 5.238-11.7 11.7 5.238 11.7 11.7 11.7z" fill="#29cc7a"></path><path d="m544.4 896.5-6.2-19.5" stroke="#000" stroke-linecap="round" stroke-miterlimit="10" stroke-width="2.09596"></path><path d="m538.2 881.1c2.264 0 4.1-1.836 4.1-4.1s-1.836-4.1-4.1-4.1c-2.265 0-4.1 1.836-4.1 4.1s1.835 4.1 4.1 4.1z" fill="#eb459f"></path><path d="m599.99 905.309c4.321-.607 7.611-2.607 7.35-4.466-.261-1.86-3.976-2.875-8.296-2.268-4.321.608-7.611 2.607-7.35 4.467.261 1.859 3.976 2.874 8.296 2.267z" fill="#000"></path><path d="m873.8 111.9c.4-6-3.3-11.5-10.1-11s-10.3 2.8-17.9 6.6c-4.082 2.033-8.689 2.766-13.2 2.1-20.9-3-26.3-2.6-30.6-1s-5.7 4-4.3 8.9 4.3 7.8 11.3 10 22.5 7.7 31.5 11.9 19.4 5.4 26.9 9.2 27.2 17.5 34.3 23.3 9.5 4.5 10.3 3.7.7-1.5.3-8c-.393-6.144-2.546-12.045-6.2-17-3.9-5.5-12.3-13.5-16.9-20.5s-6.9-17.2-15.4-18.2z" fill="#ff8c19"></path><path d="m889.2 130.1c-4.6-7-6.9-17.2-15.4-18.2-12.8-.3-23.5 5.7-31.3 6.9-5.6.8-18.8 1-24.2 1.1s-6.4.7-7.2 1.4-1.1 2-.1 2.5l-.4 2.1 7.9 2.8 34.8 12.4 18.7 8.8 22.1 14.2 15.6 11.5 2.5-.2c.6-.8.5-1.9.1-7.8-.393-6.144-2.545-12.045-6.2-17-3.9-5.5-12.3-13.5-16.9-20.5z" fill="url(#g)"></path><path d="m912 175.6c.4-.4.6-.8.6-2.1-.3 3.1-3.6.1-6.1-2.2s-9-11.2-20.5-16c-21.1-9-25.3-18.6-47.9-21.3-10.7-1.2-21.3-7.9-24.6-9.2s-4.2-1.5-4.1-3c.339-3.234-.362-6.491-2-9.3-2.4-3.8-6.7-4.8-9.4-.8-.433.898-.683 1.874-.734 2.87-.052.996.096 1.992.434 2.93 1.3 4.9 4.3 7.8 11.3 10s22.5 7.7 31.5 11.9 19.4 5.4 26.9 9.2 27.2 17.5 34.3 23.3 9.5 4.5 10.3 3.7z" fill="#ed5f00"></path><path d="m912 175.6c.4-.4.6-.8.6-2.1-.3 3.1-3.6.1-6.1-2.2-2.347-2.711-4.852-5.282-7.5-7.7 2.2 2.2 2.8 5.6 2.9 8.4 7 5.7 9.3 4.4 10.1 3.6z" fill="#000"></path><path d="m916.3 182.2c-1.2-3.6-1.1-6.7-.8-10.7s-1.3-10.8-8.7-19.9l-3.4 16.3c6 6.9 8.9 12.9 8.9 16.7s.6 10 4.1 9.2 1.1-8-.1-11.6z" fill="#ffc619"></path><path d="m821.8 125.5c2.524 1.613 5.246 2.89 8.1 3.8 3.661 1.178 7.404 2.081 11.2 2.7.3 0 .4-.1.4-.3-.5-4.2-6.1-7.5-10.2-8.1s-8.4.1-9.7 1.4 0 .4.2.5z" fill="#ff78b9"></path><path d="m875.701 124.5c-.3 2.9-5.1 4.9-10.8 4.4s-10.1-3.3-9.9-6.3 3.6-4.8 8-2.8c1.911.804 3.935 1.309 6 1.5 4.4.4 6.9.9 6.7 3.2z" fill="#eb459f"></path><path d="m883.901 143.6c1.481.866 3.018 1.634 4.6 2.3 2.7 1 3.6 1.8 2.7 3s-4.8 1.5-8.5-.3-5.601-4.5-4.601-6.1 2.901-.7 5.801 1.1z" fill="#eb459f"></path><path d="m906.5 149.1c-1.123-1.501-2.762-2.534-4.6-2.9-2.8-.6-4.1.8-4 2.7s2.5 5.2 7.3 8.7 6.1-1 5.2-3-2.6-3.8-3.9-5.5z" fill="#eb459f"></path><path d="m875.6 81.9001c-4.876-.2531-9.756.3909-14.4 1.9-3.5 1.2-.6 5.2 8.6 7.5s19.3 1.8 23 1.8 3.3.2 5.6 2.7 4.1 4.3999 4.2 2.3c.1-2.1-.4-4 1.2-5.8s2.2-2.8 2.2-4.4-.6-1.3-2.5-.2c-1.842 1.1064-3.745 2.108-5.7 3-.9.3-1-.4-3.4-2.2-5.424-4.1081-11.998-6.416-18.8-6.6z" fill="#66bcff"></path><path d="m856.7 86.2001 4.4-1.1-3.1-2.7" stroke="#66bcff" stroke-linecap="round" stroke-linejoin="round" stroke-width="2.4387"></path><path d="m867.75 85.0454c.552-.0058.997-.2791.993-.6104-.003-.3314-.453-.5953-1.006-.5895-.552.0058-.997.2791-.993.6104.003.3314.454.5953 1.006.5895z" fill="#000"></path><path d="m805.4 114.9c-1.4-2.1-3.6-2.8-4.8-1.7s-1.2 3.7.2 5.7 3.5 2.8 4.8 1.7 1.1-3.7-.2-5.7z" fill="#ff8c19"></path><path d="m902.9 160.2c4.6 3.1 6.7 5.5 7.9 10.4" stroke="#ffe75c" stroke-linecap="round" stroke-miterlimit="10" stroke-width="1.74193"></path><path d="m899 92.5 2.4-.3" stroke="#000" stroke-linecap="round" stroke-miterlimit="10" stroke-width="1.74193"></path><path d="m830.6 154.9c-4.384.487-8.649 1.739-12.6 3.7-2.9 1.6.2 4.8 8.8 5.6s17.4-1.2 20.8-1.6 3-.4 5.4 1.6 4.3 3.4 4.1 1.5-.9-3.6.2-5.4 1.6-2.8 1.4-4.3-.7-1.1-2.3.2c-1.45 1.316-3.024 2.489-4.7 3.5-.8.4-.9-.3-3.3-1.4-5.432-2.966-11.657-4.155-17.8-3.4z" fill="#3442d9"></path><path d="m474.7 154.3-15.7 1.5c-1.247.11-2.448.522-3.5 1.2-5.6 3.4-6.7 5.7-6.7 5.7l9.3 9 18.5-14.6z" fill="#ffe75c"></path><path d="m419.6 157.7 2.3-2.6s12.1-1.1 16.7-1.2 14.6 4.2 20 13.3c5.7-9.2 13.5-12.4 16.1-12.9l1.9 2.8-19.6 16.9z" fill="#ffc619"></path><path d="m436.6 172.4c-.492 1.304-.893 2.641-1.2 4-.3 1.3.6 1.3 7.2 1.3h15.5c1.9.1 2.7-.8 1.7-4.4 5.7-6.5 15.7-13 19.4-15.3.06-.031.114-.074.157-.127s.075-.114.094-.18c.019-.065.024-.134.015-.201-.009-.068-.031-.133-.066-.192l-.9-1.1c-.091-.052-.195-.08-.3-.08s-.209.028-.3.08c-7.6 5-13.9 9.5-19.8 15.4-8-9.2-14.4-12.8-19.7-15.2-.272-.159-.587-.229-.9-.2l-20 1c-.292 0-.572.116-.778.322-.206.207-.322.487-.322.778-.011.195.041.388.15.55.108.163.266.286.45.35 13.1 5.7 19.6 13.2 19.6 13.2z" fill="#66bcff"></path><path d="m436.6 172.4c-.492 1.304-.893 2.641-1.2 4-.3 1.3.6 1.3 7.2 1.3h13c-1.7-.1-2-.5.1-4.7-2.6-3.9-8.6-9.6-17.6-14.5l-21.1.7c13.1 5.7 19.6 13.2 19.6 13.2z" fill="#8cd9ff"></path><path d="m458.4 169.2-.3 2.5" stroke="#000" stroke-linecap="round" stroke-miterlimit="10" stroke-width="1.5208"></path><path d="m375.7 137.6-.6-1c-.1-.1-.4-.2-.5-.1l-1.2.7-1.5-2.5-13.3.3c-1.041.078-2.059.349-3 .8-1.144.591-2.247 1.259-3.3 2-3.8-3.6-8.2-5.4-10.8-5.5s-14.2 0-14.2 0l-1.7 1.7h-2.2c-.231.022-.448.124-.612.288-.164.165-.266.381-.288.612-.037.159-.018.326.055.472s.195.262.345.328c3.912 1.949 7.572 4.367 10.9 7.2l1.6 1.4.7.8c.972.83 1.844 1.769 2.6 2.8 0 0-.9 2.2-1.2 3.3 0 .2-.1.3-.1.4-.003.117.036.231.109.322.073.092.176.155.291.178.773.263 1.583.398 2.4.4l3.4.2h10.8l2.2.2c1.6.1 2.3-.5 1.7-3.7 5.2-5.1 14-10 17.3-11.8.2.6.3.4.1.2z" fill="#3442d9"></path><path d="m413.299 107.7-22.7 2.2c-1.76.174-3.446.793-4.9 1.8-7.6 4.9-8.9 8.4-8.9 8.4l15.3 13.1 24.6-21.4z" fill="#ffe75c"></path><path d="m333.199 112.9 2.9-3.8s17.5-1.7 24.2-1.8 22.1 6 31.8 19.3c6.6-13.5 17.5-18.2 21.2-18.9l3.4 4.1-25.8 24.8z" fill="#ffc619"></path><path d="m360.699 134.3s-.9 4-1.1 5.9 1.1 2 10.9 1.9h22.7c2.8.1 3.8-1.2 1.7-6.5 7.3-9.4 20.7-19 25.8-22.4.067-.065.12-.143.156-.229s.054-.178.054-.271-.018-.185-.054-.271-.089-.164-.156-.229l-1.4-1.6c-.122-.106-.273-.172-.434-.19-.161-.017-.323.014-.466.09-10.2 7.4-18.7 14-26.3 22.7-13.4-13.4-23.4-18.7-31.6-22.2-.413-.162-.857-.23-1.3-.2l-29.2 1.6c-.202-.002-.402.04-.586.122-.184.083-.349.204-.482.356s-.231.331-.288.525c-.058.193-.073.397-.044.597.009.294.111.578.29.812.18.233.428.404.71.488 20.3 8.1 31.1 19 31.1 19z" fill="#eb459f"></path><path d="m360.7 134.3s-.9 4-1.1 5.9 1.1 2 10.9 1.9h19c-2.4-.1-3-.8-.7-6.8-4.4-5.7-14.3-14-28.4-21.1l-30.8 1.1c20.3 8.1 31.1 19 31.1 19z" fill="#ff78b9"></path><path d="m391.999 129 .2 1.9" stroke="#000" stroke-linecap="round" stroke-miterlimit="10" stroke-width="1.5208"></path></svg>