<svg x="0" y="0" aria-hidden="false" viewBox="0 0 24 24"><path fill="currentColor" fill-rule="evenodd" clip-rule="evenodd" d="M11 5V3C16.515 3 21 7.486 21 13H19C19 8.589 15.411 5 11 5ZM17 13H15C15 10.795 13.206 9 11 9V7C14.309 7 17 9.691 17 13ZM11 11V13H13C13 11.896 12.105 11 11 11ZM14 16H18C18.553 16 19 16.447 19 17V21C19 21.553 18.553 22 18 22H13C6.925 22 2 17.075 2 11V6C2 5.447 2.448 5 3 5H7C7.553 5 8 5.447 8 6V10C8 10.553 7.553 11 7 11H6C6.063 14.938 9 18 13 18V17C13 16.447 13.447 16 14 16Z"></path></svg>