<svg width="24" height="24" viewBox="0 0 24 24" class="socialIcon-32i0_n"><path fill="currentColor" d="M8.2177 20.2976C15.798 20.2976 19.9327 14.0329 19.9327 8.58261V8.05011C20.7362 7.46091 21.435 6.74089 22 5.92012C21.2567 6.26235 20.4637 6.48437 19.6507 6.57791C20.5139 6.06164 21.1597 5.24885 21.4675 4.2913C20.6598 4.76183 19.7822 5.10021 18.8677 5.29365C17.3053 3.64491 14.7069 3.56109 13.0415 5.10571C11.9701 6.10222 11.5157 7.59694 11.8512 9.02114C8.54594 8.85772 5.46574 7.29769 3.37823 4.72983C2.28095 6.60789 2.84519 9.01622 4.66249 10.2114C4.00661 10.1858 3.36464 10.0146 2.78309 9.71026V9.7729C2.78257 11.7293 4.15628 13.417 6.07204 13.8136C5.46884 13.9751 4.83671 13.9965 4.22396 13.8763C4.76475 15.5538 6.31437 16.7003 8.07674 16.7267C6.62377 17.8749 4.82287 18.4936 2.97103 18.4808C2.65779 18.4808 2.31323 18.4495 2 18.4182C3.84433 19.6513 6.0148 20.3057 8.23336 20.2976"></path></svg>