<svg width="24" height="24" viewBox="0 0 24 24" class="socialIcon-32i0_n"><path fill-rule="evenodd" clip-rule="evenodd" d="M21.3766 4.10479C22.4093 4.38257 23.2225 5.20102 23.4985 6.24038C24 8.12411 24 12.0545 24 12.0545C24 12.0545 24 15.9848 23.4985 17.8688C23.2225 18.908 22.4093 19.7265 21.3766 20.0044C19.505 20.5091 12 20.5091 12 20.5091C12 20.5091 4.49496 20.5091 2.62336 20.0044C1.59082 19.7265 0.777545 18.908 0.501545 17.8688C0 15.9848 0 12.0545 0 12.0545C0 12.0545 0 8.12411 0.501545 6.24038C0.777545 5.20102 1.59082 4.38257 2.62336 4.10479C4.49496 3.59998 12 3.59998 12 3.59998C12 3.59998 19.505 3.59998 21.3766 4.10479ZM15.8182 12.0546L9.54551 15.623V8.48596L15.8182 12.0546Z" fill="currentColor"></path></svg>